<svg width="137" height="54" viewBox="0 0 137 54" fill="none" xmlns="http://www.w3.org/2000/svg">
<path d="M60.6857 38L68.9141 18.0004H71.1998L79.371 38H75.8283L69.4284 21.8003H70.6284L64.1713 38H60.6857ZM64.7428 34.1429V31.2858H75.3425V34.1429H64.7428ZM81.8038 38V17.429H84.9466V38H81.8038ZM94.187 38.2857C92.949 38.2857 91.8252 37.9714 90.8157 37.3429C89.8252 36.7143 89.0348 35.8667 88.4443 34.8001C87.8729 33.7144 87.5872 32.5049 87.5872 31.1716C87.5872 29.8192 87.8729 28.6097 88.4443 27.5431C89.0348 26.4574 89.8252 25.6002 90.8157 24.9717C91.8252 24.3241 92.949 24.0003 94.187 24.0003C95.2346 24.0003 96.1584 24.2288 96.9584 24.686C97.7774 25.1241 98.425 25.7336 98.9012 26.5145C99.3774 27.2955 99.6155 28.1811 99.6155 29.1716V33.1144C99.6155 34.1048 99.3774 34.9905 98.9012 35.7715C98.4441 36.5524 97.806 37.1714 96.987 37.6286C96.1679 38.0667 95.2346 38.2857 94.187 38.2857ZM94.7013 35.3143C95.8632 35.3143 96.7965 34.9239 97.5013 34.1429C98.225 33.362 98.5869 32.362 98.5869 31.143C98.5869 30.324 98.425 29.6002 98.1012 28.9716C97.7774 28.3431 97.3203 27.8573 96.7298 27.5145C96.1584 27.1526 95.4822 26.9717 94.7013 26.9717C93.9394 26.9717 93.2632 27.1526 92.6728 27.5145C92.1014 27.8573 91.6442 28.3431 91.3014 28.9716C90.9776 29.6002 90.8157 30.324 90.8157 31.143C90.8157 31.962 90.9776 32.6858 91.3014 33.3144C91.6442 33.9429 92.1014 34.4382 92.6728 34.8001C93.2632 35.1429 93.9394 35.3143 94.7013 35.3143ZM98.387 38V34.3144L98.9298 30.9716L98.387 27.6574V24.286H101.53V38H98.387ZM106.903 38V21.9146C106.903 21.0003 107.103 20.1908 107.503 19.4861C107.922 18.7623 108.494 18.1909 109.218 17.7718C109.941 17.3528 110.789 17.1433 111.76 17.1433C112.484 17.1433 113.113 17.2671 113.646 17.5147C114.198 17.7433 114.713 18.0766 115.189 18.5147L113.132 20.5718C112.941 20.4194 112.732 20.3051 112.503 20.2289C112.294 20.1337 112.046 20.0861 111.76 20.0861C111.208 20.0861 110.779 20.248 110.475 20.5718C110.189 20.8956 110.046 21.3337 110.046 21.886V38H106.903ZM103.618 27.1431V24.286H116.989V27.1431H103.618ZM115.189 38V24.286H118.332V38H115.189ZM116.76 23.086C116.227 23.086 115.779 22.9051 115.417 22.5432C115.075 22.1813 114.903 21.7337 114.903 21.2003C114.903 20.667 115.075 20.2194 115.417 19.8575C115.779 19.4956 116.227 19.3147 116.76 19.3147C117.313 19.3147 117.76 19.4956 118.103 19.8575C118.446 20.2194 118.617 20.667 118.617 21.2003C118.617 21.7337 118.446 22.1813 118.103 22.5432C117.76 22.9051 117.313 23.086 116.76 23.086ZM127.585 38.2857C126.347 38.2857 125.223 37.9714 124.213 37.3429C123.223 36.7143 122.433 35.8667 121.842 34.8001C121.271 33.7144 120.985 32.5049 120.985 31.1716C120.985 29.8192 121.271 28.6097 121.842 27.5431C122.433 26.4574 123.223 25.6002 124.213 24.9717C125.223 24.3241 126.347 24.0003 127.585 24.0003C128.632 24.0003 129.556 24.2288 130.356 24.686C131.175 25.1241 131.823 25.7336 132.299 26.5145C132.775 27.2955 133.013 28.1811 133.013 29.1716V33.1144C133.013 34.1048 132.775 34.9905 132.299 35.7715C131.842 36.5524 131.204 37.1714 130.385 37.6286C129.566 38.0667 128.632 38.2857 127.585 38.2857ZM128.099 35.3143C129.261 35.3143 130.194 34.9239 130.899 34.1429C131.623 33.362 131.985 32.362 131.985 31.143C131.985 30.324 131.823 29.6002 131.499 28.9716C131.175 28.3431 130.718 27.8573 130.128 27.5145C129.556 27.1526 128.88 26.9717 128.099 26.9717C127.337 26.9717 126.661 27.1526 126.071 27.5145C125.499 27.8573 125.042 28.3431 124.699 28.9716C124.375 29.6002 124.213 30.324 124.213 31.143C124.213 31.962 124.375 32.6858 124.699 33.3144C125.042 33.9429 125.499 34.4382 126.071 34.8001C126.661 35.1429 127.337 35.3143 128.099 35.3143ZM131.785 38V34.3144L132.328 30.9716L131.785 27.6574V24.286H134.928V38H131.785Z" fill="white"/>
<g clip-path="url(#clip0_2_2243)">
<path d="M6.11395 17.6822C2.64913 18.2859 0 21.3116 0 24.9317V32.2771H17.0526C16.6754 29.2863 15.5438 26.3916 13.5703 24.0655C13.0442 23.4444 12.465 22.8675 11.8332 22.3512L6.11395 17.6816V17.6822Z" fill="white"/>
<path d="M25 49.855H32.3775V32.2774H42.6318C46.6846 32.2774 50 28.9717 50 24.9319V17.5771H35.5702C33.7368 19.9469 32.3687 22.6757 31.4298 25.9372C29.9035 31.2541 29.7459 36.9383 27.7017 42.1067C26.5 45.1237 24.7717 47.5371 22.6667 49.479C23.3949 49.7241 24.1843 49.855 25 49.855Z" fill="white"/>
<path d="M32.3775 10.9575V7.35431C32.3775 3.31397 29.0528 -0.000488281 25 -0.000488281H17.6225V8.75309C18.4732 8.39452 19.4034 8.1937 20.3855 8.1937C24.1312 8.1937 27.1838 11.0972 27.4208 14.7696C28.9909 13.4052 30.6492 12.1287 32.3769 10.9569L32.3775 10.9575Z" fill="white"/>
<path d="M41.3683 8.96387C16.8944 24.8272 39.0263 46.515 6.85956 54.0007C22.4034 46.7251 23.0965 28.1766 13.4827 20.3415L22.895 23.2712C22.895 23.2712 29.6145 14.0188 41.3689 8.96445L41.3683 8.96387Z" fill="white"/>
<path d="M20.3861 10.8003C22.8332 10.8003 24.8248 12.7765 24.8248 15.2254C24.8248 17.6743 22.8338 19.6418 20.3861 19.6418C17.9384 19.6418 15.9473 17.6655 15.9473 15.2254C15.9473 12.7852 17.9384 10.8003 20.3861 10.8003Z" fill="white"/>
</g>
<defs>
<clipPath id="clip0_2_2243">
<rect width="50" height="54" fill="white"/>
</clipPath>
</defs>
</svg>
