<svg width="62" height="58" viewBox="0 0 62 58" fill="none" xmlns="http://www.w3.org/2000/svg">
<path d="M5.30378 30.6668L5.30381 30.6668C5.87555 30.3315 6.61695 30.5232 6.95509 31.0978C8.13964 33.1206 9.60014 35.1313 11.294 37.073L11.407 36.9743L11.294 37.073C15.3946 41.7722 23.3147 50.2526 31.0471 55.1753L31.1276 55.2266L31.2082 55.1753C38.9392 50.2526 46.8607 41.7722 50.96 37.073C54.2986 33.2455 56.6781 29.2207 58.0289 25.1054C59.4287 20.8435 59.7106 17.0808 58.8647 13.8468C58.018 10.6099 56.0452 7.91746 52.9638 5.79269C47.4231 1.96811 42.8047 2.07093 39.3202 3.48149C35.8475 4.88733 33.5219 7.58337 32.534 8.91423L32.5339 8.91434C32.2101 9.35137 31.6749 9.57632 31.1295 9.57632C30.5841 9.57632 30.0485 9.35136 29.724 8.91424C28.7368 7.58264 26.4122 4.8863 22.9396 3.48047C19.4553 2.0699 14.8363 1.96745 9.29288 5.79267C6.65582 7.61207 4.83022 9.86051 3.8318 12.5199C2.83374 15.1783 2.66634 18.2364 3.3272 21.6697C3.4527 22.324 3.0254 22.9565 2.3698 23.0833C1.71455 23.21 1.08318 22.7818 0.95634 22.1259C0.203347 18.2137 0.432647 14.6789 1.60324 11.6021C2.77358 8.52606 4.88829 5.89864 7.92153 3.80575C13.9322 -0.340955 19.027 -0.420842 22.9518 0.921953C26.8864 2.26809 29.6642 5.05091 31.0141 6.6586L31.129 6.79538L31.2439 6.65862C32.5932 5.05227 35.3706 2.26945 39.305 0.922967C43.2296 -0.420165 48.3245 -0.340948 54.3351 3.80575L54.4203 3.68228L54.3351 3.80575C57.8682 6.24287 60.147 9.36334 61.1537 13.0642C62.1611 16.7673 61.8984 21.0648 60.3238 25.8587L60.3238 25.8588C58.8748 30.2774 56.3387 34.584 52.7818 38.6604L52.8949 38.759L52.7818 38.6604C48.4558 43.6202 39.9786 52.674 31.7568 57.6797C31.5648 57.7955 31.3462 57.8546 31.129 57.8546C30.912 57.8546 30.6947 57.7956 30.5012 57.6783C22.2794 52.6713 13.8022 43.6174 9.47617 38.659C7.68221 36.6026 6.13259 34.4686 4.8729 32.3196C4.53598 31.7436 4.72933 31.0035 5.30378 30.6668Z" fill="#28574E" stroke="#F9F9F9" stroke-width="0.3"/>
<path d="M13.0962 27.0955L17.0101 17.8292L17.19 17.4033L17.2944 17.8537L22.1177 38.6599L13.0962 27.0955ZM13.0962 27.0955C12.9066 27.5425 12.4681 27.8333 11.9844 27.8333H1.46652C0.800218 27.8333 0.259375 27.2925 0.259375 26.6262C0.259375 25.9599 0.800218 25.419 1.46652 25.419H11.0846H11.1841L11.2228 25.3274L16.4138 13.0372M13.0962 27.0955L16.4138 13.0372M16.4138 13.0372C16.4138 13.0372 16.4138 13.0372 16.4138 13.0371M16.4138 13.0372L16.4138 13.0371M16.4138 13.0371C16.6189 12.5532 17.1082 12.2503 17.6268 12.3042L17.6295 12.3044C18.151 12.3491 18.5842 12.7245 18.7012 13.2348L18.7013 13.2352L23.241 32.8188L23.532 32.8237L27.5125 17.9453L27.5125 17.9452C27.6551 17.4111 28.0977 17.0524 28.6944 17.0495M16.4138 13.0371L28.6944 17.0495M28.6944 17.0495C29.2452 17.0561 29.7216 17.4359 29.852 17.9731L31.68 25.5296L31.7078 25.6443H31.8258H40.483C41.1506 25.6443 41.6902 26.1851 41.6902 26.8515C41.6902 27.5179 41.1506 28.0586 40.483 28.0586H30.7564C30.1988 28.0586 29.7146 27.6773 29.583 27.135L28.7565 23.7192L28.4658 23.7157L24.4582 38.6999L24.458 38.7005C24.3194 39.2272 23.8406 39.5943 23.2948 39.5943H23.2948H23.2947H23.2947H23.2946H23.2946H23.2946H23.2945H23.2945H23.2944H23.2944H23.2944H23.2943H23.2943H23.2942H23.2942H23.2942H23.2941H23.2941H23.294H23.294H23.294H23.2939H23.2939H23.2938H23.2938H23.2938H23.2937H23.2937H23.2936H23.2936H23.2936H23.2935H23.2935H23.2934H23.2934H23.2934H23.2933H23.2933H23.2932H23.2932H23.2931H23.2931H23.2931H23.293H23.293H23.2929H23.2929H23.2929H23.2928H23.2928H23.2927H23.2927H23.2927H23.2926H23.2926H23.2925H23.2925H23.2924H23.2924H23.2924H23.2923H23.2923H23.2922H23.2922H23.2922H23.2921H23.2921H23.292H23.292H23.2919H23.2919H23.2919H23.2918H23.2918H23.2917H23.2917H23.2917H23.2916H23.2916H23.2915H23.2915H23.2914H23.2914H23.2914H23.2913H23.2913H23.2912H23.2912H23.2911H23.2911H23.2911H23.291H23.291H23.2909H23.2909H23.2909H23.2908H23.2908H23.2907H23.2907H23.2906H23.2906H23.2906H23.2905H23.2905H23.2904H23.2904H23.2903H23.2903H23.2903H23.2902H23.2902H23.2901H23.2901H23.29H23.29H23.29H23.2899H23.2899H23.2898H23.2898H23.2897H23.2897H23.2897H23.2896H23.2896H23.2895H23.2895H23.2894H23.2894H23.2894H23.2893H23.2893H23.2892H23.2892H23.2891H23.2891H23.289H23.289H23.289H23.2889H23.2889H23.2888H23.2888H23.2887H23.2887H23.2887H23.2886H23.2886H23.2885H23.2885H23.2884H23.2884H23.2884H23.2883H23.2883H23.2882H23.2882H23.2881H23.2881H23.288H23.288H23.288H23.2879H23.2879H23.2878H23.2878H23.2877H23.2877H23.2876H23.2876H23.2876H23.2875H23.2875H23.2874H23.2874H23.2873H23.2873H23.2872H23.2872H23.2872H23.2871H23.2871H23.287H23.287H23.2869H23.2869H23.2868H23.2868H23.2868H23.2867H23.2867H23.2866H23.2866H23.2865H23.2865H23.2864H23.2864H23.2864H23.2863H23.2863H23.2862H23.2862H23.2861H23.2861H23.286H23.286H23.286H23.2859H23.2859H23.2858H23.2858H23.2857H23.2857H23.2856H23.2856H23.2855H23.2855H23.2855H23.2854H23.2854H23.2853H23.2853H23.2852H23.2852H23.2851H23.2851H23.2851H23.285H23.285H23.2849H23.2849H23.2848H23.2848H23.2847H23.2847H23.2846H23.2846H23.2846H23.2845H23.2845H23.2844H23.2844H23.2843H23.2843H23.2842H23.2842H23.2841H23.2841H23.2841H23.284H23.284H23.2839H23.2839H23.2838H23.2838H23.2837H23.2837H23.2836H23.2836H23.2836H23.2835H23.2835H23.2834H23.2834H23.2833H23.2833H23.2832H23.2832H23.2831H23.2831H23.283H23.283H23.283H23.2829H23.2829H23.2828H23.2828H23.2827H23.2827H23.2826H23.2826H23.2825H23.2825H23.2824H23.2824H23.2824H23.2823H23.2823H23.2822H23.2822H23.2821H23.2821H23.282H23.282H23.2819H23.2819H23.2818H23.2818H23.2818H23.2817H23.2817H23.2816H23.2816H23.2815H23.2815H23.2814H23.2814H23.2813H23.2813H23.2812H23.2812H23.2811H23.2811H23.2811H23.281H23.281H23.2809H23.2809H23.2808H23.2808H23.2807H23.2807H23.2806H23.2806H23.2805H23.2805H23.2805H23.2804H23.2804H23.2803H23.2803H23.2802H23.2802H23.2801H23.2801H23.28H23.28H23.2799H23.2799H23.2798H23.2798H23.2797H23.2797H23.2797H23.2796H23.2796H23.2795H23.2795H23.2794H23.2794H23.2793H23.2793H23.2792H23.2792H23.2791H23.2791H23.279H23.279H23.279H23.2789H23.2789H23.2788H23.2788H23.2787H23.2787H23.2786H23.2786H23.2785H23.2785H23.2784H23.2784H23.2783H23.2783H23.2782H23.2782H23.2782H23.2781H23.2781H23.278H23.278H23.2779H23.2779H23.2778H23.2778H23.2777H23.2777H23.2776H23.2776H23.2775H23.2775H23.2774H23.2774H23.2773H23.2773H23.2773H23.2772H23.2772H23.2771H23.2771H23.277H23.277H23.2769H23.2769H23.2768H23.2768H23.2767H23.2767H23.2766H23.2766H23.2765H23.2765H23.2764H23.2764H23.2764H23.2763H23.2763H23.2762H23.2762H23.2761H23.2761H23.276H23.276H23.2759H23.2759H23.2758H23.2758H23.2757H23.2757H23.2756H23.2756H23.2755H23.2755H23.2755H23.2754H23.2754H23.2753H23.2753H23.2752H23.2752H23.2751H23.2751H23.275H23.275H23.2749H23.2749H23.2748H23.2748H23.2747H23.2747H23.2746H23.2746H23.2745H23.2745H23.2745H23.2744H23.2744H23.2743H23.2743H23.2742H23.2742H23.2741H23.2741H23.274H23.274H23.2739H23.2739H23.2738H23.2738H23.2737H23.2737H23.2736H23.2736H23.2735H23.2735H23.2735H23.2734H23.2734H23.2733H23.2733H23.2732H23.2732H23.2731H23.2731C22.7194 39.5841 22.2432 39.1991 22.1177 38.66L28.6944 17.0495Z" fill="#1E232F" stroke="#F9F9F9" stroke-width="0.3"/>
</svg>
