<svg width="58" height="58" viewBox="0 0 58 58" fill="none" xmlns="http://www.w3.org/2000/svg">
<path d="M31.3252 36.8591L31.3258 36.8589C30.7694 35.5322 29.8571 34.8719 28.9627 34.8611C28.0696 34.8502 27.1446 35.4867 26.5612 36.8613L26.5561 36.8734L26.5554 36.8729C26.4921 36.9807 26.4361 37.0819 26.3832 37.1773L26.379 37.185C26.3251 37.2823 26.2741 37.3742 26.2229 37.459C26.1206 37.6283 26.0135 37.776 25.8695 37.8915C25.5775 38.1257 25.1609 38.2073 24.4037 38.1547C24.4036 38.1547 24.4035 38.1547 24.4034 38.1547L24.4103 38.0549C22.7415 37.9451 22.4479 36.0659 22.5058 32.8352L31.3252 36.8591ZM31.3252 36.8591L31.3307 36.8689C31.3678 36.9354 31.4032 37.0001 31.4374 37.0626C31.5171 37.2083 31.5904 37.3422 31.6638 37.46C31.7699 37.6301 31.882 37.7764 32.027 37.891C32.3209 38.1235 32.7255 38.2066 33.4196 38.1607L33.4197 38.1607C33.8716 38.1305 34.2367 37.9842 34.5257 37.7246C34.8133 37.4664 35.0182 37.1026 35.1631 36.6494C35.4515 35.7467 35.5102 34.46 35.4823 32.8574C35.5035 31.6834 35.5083 30.4921 35.31 29.5324C35.1119 28.5735 34.7036 27.8121 33.8718 27.5523L33.8615 27.549L33.8506 27.5481C33.322 27.5025 32.9433 27.4801 32.6375 27.534C32.3228 27.5895 32.0885 27.7248 31.8439 27.9792L31.8436 27.979L31.8383 27.9856C31.6355 28.2362 31.4669 28.5127 31.337 28.8077L31.3361 28.8099C30.7987 30.1112 29.8844 30.7879 28.9808 30.812C28.08 30.836 27.1413 30.2121 26.5513 28.8074L26.5513 28.8074L26.5502 28.8049C26.2923 28.2347 26.0278 27.8662 25.6321 27.6708C25.24 27.4772 24.7386 27.4637 24.0343 27.5484L24.0251 27.5495L24.0163 27.5523C23.1865 27.8126 22.7791 28.5687 22.581 29.5225C22.3828 30.4769 22.3867 31.6625 22.4058 32.8351L31.3252 36.8591ZM31.916 28.0485C31.7188 28.2922 31.5549 28.5611 31.4286 28.848L31.916 28.0485ZM31.916 28.0485C32.3807 27.5651 32.7796 27.5561 33.842 27.6477L31.916 28.0485ZM40.4643 23.568H40.4641L40.4645 23.5742C40.4731 23.7126 40.6043 25.6878 41.6478 27.7018C42.6937 29.7204 44.6584 31.78 48.3247 32.0638C52.8315 32.4136 55.1857 33.9529 56.4163 35.4185C57.638 36.8735 57.7638 38.2695 57.7725 38.3957L57.775 56.2871C57.7749 56.534 57.6768 56.7707 57.5023 56.9453C57.3278 57.12 57.0911 57.2181 56.8442 57.2183L1.15736 57.2344C1.15735 57.2344 1.15734 57.2344 1.15733 57.2344C0.910597 57.2329 0.674389 57.1343 0.499879 56.9599C0.325436 56.7855 0.226686 56.5495 0.225 56.3029V38.4799C0.234467 38.3259 0.358573 36.9098 1.5836 35.4429C2.81443 33.9691 5.16846 32.4297 9.67531 32.0799C13.3416 31.7962 15.3063 29.7365 16.3524 27.7109C17.3961 25.69 17.5277 23.701 17.5371 23.5344L17.5372 23.5344V23.5288L17.5358 15.7682L17.5357 15.715L17.4916 15.6852C11.7316 11.8044 11.9793 8.06993 11.9908 7.93893L11.9912 7.93897L11.9912 7.93008L11.9872 1.69724C11.9872 1.69723 11.9872 1.69721 11.9872 1.6972C11.9872 1.57491 12.0112 1.45382 12.058 1.34084C12.1048 1.22784 12.1734 1.12517 12.2599 1.03869C12.3463 0.952215 12.449 0.883623 12.562 0.836836C12.675 0.790049 12.7961 0.765984 12.9184 0.766016H12.9184H44.972C45.2185 0.767703 45.4545 0.86639 45.6288 1.04073C45.8033 1.21514 45.902 1.45123 45.9036 1.69788C45.9036 1.69789 45.9036 1.6979 45.9036 1.69792L45.9011 7.99953H45.901L45.9011 8.00297C45.9187 8.52135 45.8133 11.9939 40.5079 15.6133L40.4643 15.643V15.6959V23.568ZM13.9497 2.62854H13.8497V2.72854V8.01706C13.8445 8.17708 13.8178 11.2322 19.1633 14.5611L19.1639 14.5615C22.2445 16.4497 24.1983 17.4406 25.6464 17.96C27.0992 18.4811 28.0414 18.5268 29.0927 18.531H29.0931C30.754 18.531 32.8583 18.2146 38.7248 14.561C44.0933 11.2179 44.0433 8.15091 44.041 8.0828L44.041 8.0828L44.0408 8.07953C44.0399 8.06593 44.0385 8.031 44.0385 8.01877L44.0405 2.72857L44.0405 2.62854H43.9405H13.9497ZM31.9871 20.1321L32.0143 19.9758L31.8615 20.0187C29.993 20.5443 28.0171 20.5555 26.1427 20.0512L25.9917 20.0106L26.0182 20.1647C26.3524 22.1122 26.5617 24.079 26.6449 26.0532L26.6474 26.113L26.7013 26.139C27.2643 26.4115 27.6122 26.9114 27.9168 27.4495C27.9803 27.5618 28.0433 27.6782 28.106 27.7943C28.1901 27.9498 28.2739 28.1047 28.3581 28.2479C28.5077 28.5023 28.6698 28.7403 28.8672 28.9277L28.9072 28.9658L28.9608 28.9521C29.0263 28.9354 29.0844 28.8956 29.137 28.8448C29.19 28.7937 29.2428 28.7263 29.2972 28.6453C29.4057 28.4836 29.5291 28.2542 29.6788 27.9599L29.6791 27.9601L29.6821 27.9526C30.007 27.1626 30.5777 26.4983 31.3096 26.0579L31.3556 26.0301L31.3579 25.9764C31.4411 24.0168 31.6513 22.0646 31.9871 20.1321ZM2.0875 55.272L2.08752 55.372L2.18753 55.3719L25.5599 55.3649L25.7157 55.3648L25.6508 55.2232C25.2308 54.3074 25.1332 53.891 25.1228 53.3557C25.1191 53.1634 25.1266 52.957 25.1358 52.7058C25.1397 52.5992 25.1439 52.4846 25.1477 52.3595C25.1602 51.9422 25.1674 51.4167 25.1409 50.7063C25.1402 49.9426 25.1402 49.0847 25.1402 48.1828L25.1402 48.0338C25.1401 47.0768 25.14 46.0736 25.1392 45.0833C25.1385 44.3713 25.1381 43.6579 25.1377 42.9829C25.1371 41.869 25.1366 40.86 25.1346 40.1357L25.1343 40.0308L25.0295 40.0361C24.7612 40.0497 24.4921 40.0403 24.2253 40.008L24.2254 40.0079L24.2199 40.0075C23.267 39.9452 22.564 39.6198 22.0427 39.1338C21.5199 38.6463 21.1736 37.9911 20.9464 37.2604C20.491 35.7959 20.5214 34.0546 20.5433 32.8228L20.5433 32.8208C20.5431 32.6978 20.5424 32.5719 20.5417 32.4438C20.5352 31.2898 20.5277 29.949 20.8478 28.7469C21.2012 27.4201 21.9504 26.2743 23.5413 25.7467C23.9066 25.6796 24.2771 25.645 24.6485 25.6432L24.755 25.6428L24.7478 25.5365C24.4552 21.1951 24.0765 19.9073 23.9399 19.5715L23.9315 19.5509L23.9151 19.5357C23.8105 19.4392 23.7297 19.3198 23.6789 19.1868L23.6643 19.1486L23.6272 19.1316C22.2283 18.4902 20.867 17.7697 19.5499 16.9736L19.3982 16.8819V17.0592V23.5816C19.3121 25.2682 18.713 27.7204 17.2373 29.8186C15.7633 31.9144 13.4144 33.6585 9.81898 33.9369C6.21015 34.2168 4.27808 35.3138 3.24602 36.3764C2.21463 37.4383 2.09368 38.4539 2.08443 38.5499L2.08397 38.5498L2.08397 38.5595L2.0875 55.272ZM30.9963 53.345V53.3434L30.9964 51.6858L30.9964 51.5857H30.8964H27.1035H26.9985L27.0037 51.6907C27.0247 52.1152 27.017 52.4477 27.0067 52.7254C27.005 52.7721 27.0032 52.8174 27.0014 52.8615C26.9927 53.0781 26.9852 53.2657 26.9948 53.4387C27.0187 53.8698 27.1487 54.2126 27.585 54.7564L27.5844 54.757L27.5939 54.7661C27.8766 55.0367 28.2322 55.2189 28.617 55.2905C29.0017 55.3621 29.399 55.3199 29.7602 55.169C30.1213 55.0182 30.4306 54.7653 30.6502 54.4413C30.8698 54.1173 30.99 53.7363 30.9963 53.345ZM30.8967 49.7232H30.9967L30.9967 49.6232C30.997 48.5308 30.9973 47.301 30.9978 46.0693L30.9979 45.9692H30.8978H27.1023H27.0022L27.0023 46.0693C27.0027 47.3018 27.003 48.5313 27.0033 49.6232L27.0033 49.7232H27.1033H30.8967ZM30.8988 44.1067H30.9987L30.9988 44.0068C31 42.0732 31.0018 40.3608 31.0044 39.4794L31.0045 39.4299L30.9653 39.3998C30.3956 38.9623 29.9504 38.3833 29.6739 37.7203L29.6741 37.7202L29.6706 37.7133C29.5251 37.4284 29.4029 37.2022 29.2952 37.0403C29.2414 36.9592 29.1892 36.8913 29.1374 36.8392C29.0863 36.7877 29.0299 36.7459 28.9668 36.7266L28.9156 36.7108L28.8742 36.7448C28.7177 36.8727 28.5856 37.0489 28.4661 37.2432C28.3523 37.4284 28.2464 37.6363 28.141 37.8432L28.1249 37.8746C27.9 38.3158 27.6762 38.7436 27.368 39.0071L27.3674 39.0065L27.3588 39.0161C27.2584 39.1272 27.1494 39.2302 27.0328 39.324L26.9954 39.3542L26.9955 39.4022C26.9982 40.2848 27 42.034 27.0012 44.0068L27.0013 44.1067H27.1012H30.8988ZM55.8125 55.3559L55.9125 55.3558V55.2559L55.9125 38.4608V38.4533L55.9114 38.4458L55.9112 38.4444L55.9107 38.4405L55.9089 38.428C55.9074 38.4177 55.9052 38.4038 55.9022 38.3867C55.8962 38.3524 55.8868 38.305 55.8726 38.2464C55.8442 38.1292 55.7962 37.967 55.7163 37.7736C55.5563 37.3865 55.2684 36.875 54.7533 36.3497C53.7218 35.2978 51.7899 34.2007 48.1811 33.9209C44.5856 33.6424 42.2367 31.8983 40.7628 29.8089C39.2873 27.7172 38.6886 25.2781 38.6033 23.6179L38.6021 16.9936L38.6021 16.816L38.4503 16.9081C37.1362 17.7051 35.779 18.4286 34.3848 19.0752L34.3442 19.094L34.3312 19.1369C34.2848 19.2898 34.1993 19.4279 34.0831 19.5375L34.0673 19.5525L34.0591 19.5726C33.923 19.9072 33.5449 21.1938 33.2515 25.5417L33.2444 25.6469L33.3498 25.6484C33.6838 25.6534 34.0168 25.6859 34.3455 25.7458C35.9389 26.2742 36.6887 27.4222 37.0418 28.7515C37.3614 29.9547 37.3534 31.2967 37.3466 32.4523C37.3458 32.582 37.345 32.7093 37.3448 32.8339L37.3446 32.8339L37.3449 32.8393C37.4156 34.1978 37.381 36.0716 36.7949 37.5707C36.5025 38.3187 36.0749 38.9676 35.46 39.4145C34.8465 39.8604 34.038 40.1113 32.9712 40.0495L32.8656 40.0433L32.8654 40.1491C32.8613 42.4872 32.8591 47.5214 32.8595 50.6526C32.8326 51.3704 32.8397 51.9032 32.8524 52.3271C32.8562 52.4557 32.8605 52.5736 32.8644 52.6831C32.8737 52.937 32.8813 53.1463 32.8778 53.3411C32.8678 53.8865 32.7705 54.3085 32.3499 55.2211L32.2845 55.363L32.4408 55.3629L55.8125 55.3559Z" fill="#28574E" stroke="#F9F9F9" stroke-width="0.2"/>
</svg>
