<svg width="63" height="57" viewBox="0 0 63 57" fill="none" xmlns="http://www.w3.org/2000/svg">
<path d="M37.0625 46.0199C36.0899 47.8803 35.5641 49.969 35.5641 52.1196V55.5636H27.4365V52.1196C27.4365 48.1744 25.6672 44.4373 22.6156 41.9368C19.6963 39.5448 19.5147 35.1424 22.2271 32.5181H22.2273C24.2338 30.5768 24.5393 27.468 22.9491 25.1733L19.7385 20.54C14.7604 13.3561 19.9019 3.53809 28.642 3.53809H34.3584C43.0985 3.53809 48.24 13.3561 43.262 20.54L40.0514 25.1733C38.4611 27.4681 38.7667 30.5768 40.7732 32.5182C40.9837 32.7218 41.1768 32.9362 41.3525 33.1595" stroke="#28574E" stroke-width="1.5" stroke-miterlimit="10"/>
<path d="M31.5011 35.8458V28.314C31.5011 25.7615 30.7979 23.2449 29.3973 21.1112C29.3363 21.0184 29.2743 20.9262 29.2109 20.8348L26.0003 16.2015C25.0361 14.8101 25.4577 13.5224 25.7947 12.8788C26.1318 12.2351 26.9501 11.1553 28.6429 11.1553H34.3594C36.0522 11.1553 36.8704 12.2351 37.2076 12.8788C37.5447 13.5224 37.9662 14.8101 37.002 16.2015L33.7914 20.8348C33.7279 20.9263 33.6657 21.0186 33.6048 21.1114C32.2042 23.2453 31.5011 25.7616 31.5011 28.3139V35.8458Z" stroke="#28574E" stroke-width="1.5" stroke-miterlimit="10"/>
<path d="M3.71078 13.9367L1.74072 10.5809C0.0433599 7.68968 1.01125 3.96982 3.90248 2.27246C6.79371 0.575098 10.5136 1.54299 12.2109 4.43422L12.84 5.5057C14.0775 7.61376 16.3391 8.90856 18.7835 8.90856" stroke="#28574E" stroke-width="1.5" stroke-miterlimit="10"/>
<path d="M6.19043 21.9775C8.46914 21.9775 10.3164 20.1303 10.3164 17.8516C10.3164 15.5728 8.46914 13.7256 6.19043 13.7256C3.91172 13.7256 2.06445 15.5728 2.06445 17.8516C2.06445 20.1303 3.91172 21.9775 6.19043 21.9775Z" stroke="#28574E" stroke-width="1.5" stroke-miterlimit="10"/>
<path d="M56.8096 21.9775C59.0883 21.9775 60.9355 20.1303 60.9355 17.8516C60.9355 15.5728 59.0883 13.7256 56.8096 13.7256C54.5309 13.7256 52.6836 15.5728 52.6836 17.8516C52.6836 20.1303 54.5309 21.9775 56.8096 21.9775Z" stroke="#28574E" stroke-width="1.5" stroke-miterlimit="10"/>
<path d="M59.2896 13.9367L61.2596 10.5809C62.957 7.68968 61.9891 3.96982 59.0979 2.27246C56.2066 0.575098 52.4868 1.54299 50.7894 4.43422L50.1604 5.5057C48.9228 7.61376 46.6613 8.90856 44.2168 8.90856" stroke="#28574E" stroke-width="1.5" stroke-miterlimit="10"/>
<path d="M49.3793 55.5642C56.4027 55.5642 62.0964 49.8705 62.0964 42.847C62.0964 35.8235 56.4027 30.1299 49.3793 30.1299C42.3558 30.1299 36.6621 35.8235 36.6621 42.847C36.6621 49.8705 42.3558 55.5642 49.3793 55.5642Z" stroke="#1E232F" stroke-width="1.5" stroke-miterlimit="10"/>
<path d="M45.1152 38.6553L53.5715 47.1114" stroke="#1E232F" stroke-width="1.5" stroke-miterlimit="10"/>
<path d="M53.5715 38.6553L45.1152 47.1114" stroke="#1E232F" stroke-width="1.5" stroke-miterlimit="10"/>
</svg>
