<svg width="48" height="49" viewBox="0 0 48 49" fill="none" xmlns="http://www.w3.org/2000/svg">
<g filter="url(#filter0_d_2_632)">
<path d="M7 9.41333C7 8.08048 8.08048 7 9.41333 7H38.5867C39.9195 7 41 8.08048 41 9.41333V38.5866C41 39.9194 39.9195 40.9999 38.5867 40.9999H9.41333C8.08049 40.9999 7 39.9194 7 38.5866V9.41333Z" fill="#0A66C2"/>
<path d="M14.6314 17.5589C16.2604 17.5589 17.5809 16.2384 17.5809 14.6094C17.5809 12.9804 16.2604 11.6599 14.6314 11.6599C13.0025 11.6599 11.6819 12.9804 11.6819 14.6094C11.6819 16.2384 13.0025 17.5589 14.6314 17.5589Z" fill="white"/>
<path d="M20.2822 19.7387H25.1704V21.978C25.1704 21.978 26.4969 19.325 30.1061 19.325C33.3257 19.325 35.9928 20.911 35.9928 25.7454V35.9397H30.9271V26.9807C30.9271 24.1289 29.4046 23.8152 28.2444 23.8152C25.8367 23.8152 25.4245 25.892 25.4245 27.3527V35.9397H20.2822V19.7387Z" fill="white"/>
<path d="M12.0603 19.7387H17.2026V35.9397H12.0603V19.7387Z" fill="white"/>
</g>
<defs>
<filter id="filter0_d_2_632" x="-4" y="0" width="56" height="56" filterUnits="userSpaceOnUse" color-interpolation-filters="sRGB">
<feFlood flood-opacity="0" result="BackgroundImageFix"/>
<feColorMatrix in="SourceAlpha" type="matrix" values="0 0 0 0 0 0 0 0 0 0 0 0 0 0 0 0 0 0 127 0" result="hardAlpha"/>
<feOffset dy="4"/>
<feGaussianBlur stdDeviation="2"/>
<feComposite in2="hardAlpha" operator="out"/>
<feColorMatrix type="matrix" values="0 0 0 0 0 0 0 0 0 0 0 0 0 0 0 0 0 0 0.25 0"/>
<feBlend mode="normal" in2="BackgroundImageFix" result="effect1_dropShadow_2_632"/>
<feBlend mode="normal" in="SourceGraphic" in2="effect1_dropShadow_2_632" result="shape"/>
</filter>
</defs>
</svg>
