<svg width="56" height="62" viewBox="0 0 56 62" fill="none" xmlns="http://www.w3.org/2000/svg">
<path d="M44.1582 56.3017C43.9409 56.3017 43.7315 56.22 43.5717 56.0727C43.4119 55.9253 43.3135 55.7233 43.2959 55.5067C43.2784 55.29 43.343 55.0748 43.477 54.9036C43.611 54.7325 43.8045 54.6181 44.019 54.5832C45.528 54.3391 46.9004 53.5643 47.889 52.3982C48.8775 51.2322 49.4174 49.7516 49.4114 48.223C49.4115 47.5896 49.32 46.9595 49.1398 46.3523C49.1076 46.2433 49.0972 46.1292 49.1091 46.0162C49.1211 45.9033 49.1551 45.7938 49.2094 45.694C49.2636 45.5942 49.337 45.5061 49.4253 45.4346C49.5136 45.3632 49.6151 45.3099 49.724 45.2777C49.833 45.2455 49.9472 45.235 50.0601 45.247C50.1731 45.2589 50.2825 45.293 50.3823 45.3472C50.4821 45.4015 50.5702 45.4748 50.6417 45.5632C50.7131 45.6515 50.7664 45.753 50.7986 45.8619C51.0268 46.6282 51.1434 47.4234 51.1446 48.223C51.1519 50.1622 50.4668 52.0404 49.2124 53.5194C47.9581 54.9983 46.217 55.981 44.3026 56.2904C44.2548 56.2977 44.2066 56.3015 44.1582 56.3017Z" fill="#28574E"/>
<path d="M11.8404 56.3017C11.7932 56.3013 11.7461 56.2976 11.6994 56.2904C9.78502 55.981 8.04394 54.9983 6.78963 53.5194C5.53531 52.0404 4.85015 50.1622 4.85748 48.223C4.8587 47.4234 4.97521 46.6282 5.20343 45.8619C5.23563 45.753 5.28896 45.6515 5.36039 45.5632C5.43182 45.4748 5.51994 45.4015 5.61973 45.3472C5.71951 45.293 5.82901 45.2589 5.94196 45.247C6.05491 45.235 6.1691 45.2455 6.27802 45.2777C6.38694 45.3099 6.48845 45.3632 6.57676 45.4346C6.66506 45.5061 6.73844 45.5942 6.79268 45.694C6.84693 45.7938 6.881 45.9033 6.89293 46.0162C6.90487 46.1292 6.89444 46.2433 6.86224 46.3523C6.68205 46.9595 6.59059 47.5896 6.59067 48.223C6.58465 49.7516 7.12452 51.2322 8.11311 52.3982C9.10169 53.5643 10.474 54.3391 11.9831 54.5832C12.1976 54.6181 12.3911 54.7325 12.5251 54.9036C12.659 55.0748 12.7237 55.29 12.7061 55.5067C12.6886 55.7233 12.5901 55.9253 12.4303 56.0727C12.2706 56.22 12.0612 56.3017 11.8439 56.3017H11.8404Z" fill="#28574E"/>
<path d="M45.0252 15.0239C44.8662 15.0238 44.7103 14.9799 44.5746 14.897C44.4389 14.814 44.3287 14.6953 44.2561 14.5538C44.1835 14.4123 44.1514 14.2535 44.1631 14.0949C44.1749 13.9363 44.2302 13.784 44.323 13.6548C44.8493 12.9196 45.1302 12.037 45.1255 11.1329C45.124 10.0862 44.7495 9.07436 44.0693 8.27883C43.3891 7.48331 42.4478 6.95615 41.4141 6.79194C40.3804 6.62773 39.322 6.8372 38.4287 7.38278C37.5355 7.92835 36.8659 8.77434 36.54 9.76898C36.4649 9.98229 36.3093 10.1577 36.1064 10.2576C35.9036 10.3576 35.6697 10.3741 35.4548 10.3036C35.2399 10.2332 35.0612 10.0813 34.9569 9.88069C34.8526 9.68004 34.831 9.44652 34.8968 9.23017C35.3506 7.84421 36.2835 6.66536 37.5281 5.90521C38.7727 5.14506 40.2475 4.85338 41.6877 5.08252C43.128 5.31166 44.4394 6.04662 45.3866 7.15548C46.3339 8.26435 46.8549 9.67451 46.8561 11.1329C46.8622 12.3987 46.4688 13.6341 45.7318 14.6632C45.6514 14.7754 45.5452 14.8666 45.4223 14.9294C45.2994 14.9921 45.1632 15.0245 45.0252 15.0239Z" fill="#28574E"/>
<path d="M51.7678 25.023C51.6256 25.023 51.4857 24.9879 51.3603 24.9209C51.2349 24.8539 51.128 24.757 51.049 24.6388C50.97 24.5206 50.9213 24.3848 50.9073 24.2433C50.8933 24.1019 50.9144 23.9591 50.9687 23.8278C51.271 23.0845 51.4238 22.2889 51.4184 21.4866C51.4283 20.6321 51.2685 19.7843 50.9484 18.992C50.6283 18.1998 50.1541 17.4789 49.5534 16.8713C48.9527 16.2636 48.2374 15.7811 47.449 15.4518C46.6605 15.1226 45.8145 14.953 44.96 14.953C44.1056 14.953 43.2596 15.1226 42.4711 15.4518C41.6826 15.7811 40.9673 16.2636 40.3666 16.8713C39.7659 17.4789 39.2918 18.1998 38.9716 18.992C38.6515 19.7843 38.4918 20.6321 38.5016 21.4866C38.5016 21.7159 38.4105 21.9359 38.2483 22.0981C38.0861 22.2603 37.8662 22.3514 37.6368 22.3514C37.4074 22.3514 37.1874 22.2603 37.0252 22.0981C36.863 21.9359 36.7719 21.7159 36.7719 21.4866C36.7608 20.4042 36.9644 19.3304 37.3709 18.3272C37.7774 17.324 38.3787 16.4114 39.1402 15.6421C39.9016 14.8728 40.808 14.262 41.807 13.8453C42.8059 13.4285 43.8776 13.2139 44.96 13.2139C46.0424 13.2139 47.1141 13.4285 48.1131 13.8453C49.112 14.262 50.0184 14.8728 50.7799 15.6421C51.5413 16.4114 52.1427 17.324 52.5492 18.3272C52.9557 19.3304 53.1593 20.4042 53.1481 21.4866C53.1542 22.5168 52.957 23.5381 52.5678 24.492C52.5018 24.6496 52.3907 24.7842 52.2483 24.8787C52.1059 24.9732 51.9387 25.0234 51.7678 25.023Z" fill="#28574E"/>
<path d="M47.3387 38.1682C47.0576 38.1682 46.7791 38.1535 46.505 38.1266C46.3919 38.1153 46.2823 38.0818 46.1822 38.028C46.0822 37.9743 45.9937 37.9014 45.9218 37.8134C45.8499 37.7255 45.7961 37.6243 45.7633 37.5155C45.7306 37.4068 45.7195 37.2926 45.7309 37.1796C45.7423 37.0666 45.7758 36.9569 45.8295 36.8569C45.8832 36.7568 45.9562 36.6683 46.0441 36.5965C46.132 36.5246 46.2333 36.4707 46.342 36.438C46.4508 36.4052 46.5649 36.3942 46.6779 36.4056C46.8941 36.4269 47.1135 36.4379 47.3361 36.4384C48.6874 36.4399 50.005 36.017 51.1031 35.2295C52.2012 34.4419 53.0243 33.3295 53.4563 32.0491C53.8882 30.7687 53.9073 29.385 53.5108 28.0932C53.1142 26.8014 52.3221 25.6667 51.2461 24.8492C51.0626 24.7116 50.9413 24.5067 50.9089 24.2797C50.8765 24.0526 50.9355 23.8219 51.0732 23.6384C51.2108 23.4549 51.4157 23.3336 51.6428 23.3012C51.8698 23.2687 52.1005 23.3278 52.284 23.4655C53.6472 24.5025 54.6509 25.9409 55.1537 27.5783C55.6564 29.2157 55.633 30.9696 55.0866 32.593C54.5401 34.2163 53.4983 35.6274 52.1078 36.6276C50.7173 37.6277 49.0481 38.1665 47.3352 38.1682H47.3387Z" fill="#28574E"/>
<path d="M49.9671 46.9721C49.7692 46.9722 49.5772 46.9045 49.4232 46.7802C49.2692 46.6559 49.1625 46.4825 49.1209 46.289C49.0793 46.0955 49.1053 45.8936 49.1946 45.7169C49.284 45.5403 49.4312 45.3997 49.6117 45.3185C50.7402 44.808 51.6976 43.9831 52.3695 42.9425C53.0413 41.9019 53.399 40.6898 53.3998 39.4512C53.4055 38.0105 52.9218 36.6106 52.0281 35.4806C51.892 35.3 51.832 35.0732 51.8611 34.8489C51.8902 34.6245 52.006 34.4205 52.1837 34.2806C52.3615 34.1406 52.5869 34.0759 52.8118 34.1002C53.0367 34.1246 53.2431 34.2361 53.3868 34.4108C54.1517 35.385 54.6849 36.5205 54.9461 37.7313C55.2072 38.9421 55.1895 40.1964 54.8941 41.3993C54.5988 42.6022 54.0337 43.7221 53.2415 44.6743C52.4493 45.6265 51.4508 46.3859 50.3217 46.8951C50.2103 46.9456 50.0894 46.9718 49.9671 46.9721Z" fill="#28574E"/>
<path d="M10.974 15.0239C10.8366 15.024 10.7011 14.9913 10.5788 14.9286C10.4566 14.8659 10.351 14.7749 10.2709 14.6632C9.53393 13.6341 9.14048 12.3987 9.14655 11.1329C9.14783 9.67451 9.66885 8.26435 10.6161 7.15548C11.5633 6.04662 12.8747 5.31166 14.315 5.08252C15.7552 4.85338 17.23 5.14506 18.4746 5.90521C19.7192 6.66536 20.6521 7.84421 21.1059 9.23017C21.1441 9.33879 21.1603 9.45394 21.1534 9.56889C21.1466 9.68383 21.1168 9.79625 21.0659 9.89955C21.0151 10.0028 20.9441 10.0949 20.8571 10.1704C20.7702 10.2459 20.669 10.3033 20.5596 10.3392C20.4502 10.375 20.3347 10.3887 20.2199 10.3794C20.1051 10.37 19.9934 10.3378 19.8912 10.2847C19.7891 10.2316 19.6985 10.1586 19.6249 10.0701C19.5513 9.98152 19.4962 9.87915 19.4627 9.76898C19.1378 8.77304 18.4683 7.92562 17.5747 7.37898C16.681 6.83234 15.6217 6.62232 14.5871 6.78664C13.5524 6.95097 12.6103 7.47888 11.93 8.27551C11.2497 9.07214 10.8758 10.0853 10.8754 11.1329C10.8708 12.037 11.1517 12.9196 11.678 13.6548C11.7707 13.784 11.826 13.9363 11.8378 14.0949C11.8496 14.2535 11.8175 14.4123 11.7449 14.5538C11.6723 14.6953 11.5621 14.814 11.4264 14.897C11.2907 14.9799 11.1348 15.0238 10.9757 15.0239H10.974Z" fill="#28574E"/>
<path d="M4.23037 25.023C4.05908 25.0231 3.89161 24.9724 3.74918 24.8773C3.60676 24.7821 3.4958 24.6468 3.43037 24.4885C3.04163 23.5357 2.84444 22.5156 2.85004 21.4866C2.83892 20.4042 3.04249 19.3304 3.449 18.3272C3.8555 17.324 4.45686 16.4114 5.2183 15.6421C5.97974 14.8728 6.88615 14.262 7.8851 13.8453C8.88406 13.4285 9.95573 13.2139 11.0381 13.2139C12.1206 13.2139 13.1922 13.4285 14.1912 13.8453C15.1902 14.262 16.0966 14.8728 16.858 15.6421C17.6194 16.4114 18.2208 17.324 18.6273 18.3272C19.0338 19.3304 19.2374 20.4042 19.2263 21.4866C19.2263 21.7159 19.1351 21.9359 18.9729 22.0981C18.8108 22.2603 18.5908 22.3514 18.3614 22.3514C18.132 22.3514 17.912 22.2603 17.7498 22.0981C17.5876 21.9359 17.4965 21.7159 17.4965 21.4866C17.5064 20.6321 17.3467 19.7843 17.0265 18.992C16.7064 18.1998 16.2323 17.4789 15.6316 16.8713C15.0309 16.2636 14.3156 15.7811 13.5271 15.4518C12.7386 15.1226 11.8926 14.953 11.0381 14.953C10.1837 14.953 9.3377 15.1226 8.54922 15.4518C7.76074 15.7811 7.04543 16.2636 6.44473 16.8713C5.84404 17.4789 5.36989 18.1998 5.04976 18.992C4.72963 19.7843 4.56988 20.6321 4.57977 21.4866C4.57387 22.2901 4.72671 23.0869 5.0295 23.8312C5.11601 24.0428 5.11526 24.2799 5.02743 24.4909C4.93959 24.7019 4.77181 24.8696 4.56074 24.9573C4.45591 25.0004 4.34371 25.0227 4.23037 25.023Z" fill="#28574E"/>
<path d="M8.65975 38.1682C6.94509 38.1703 5.27311 37.6336 3.88001 36.634C2.48692 35.6343 1.44314 34.2222 0.896164 32.5971C0.349183 30.972 0.326646 29.2162 0.831738 27.5776C1.33683 25.939 2.34401 24.5006 3.71099 23.4655C3.89449 23.3278 4.12515 23.2687 4.35222 23.3012C4.57929 23.3336 4.78418 23.4549 4.9218 23.6384C5.05943 23.8219 5.11852 24.0526 5.08608 24.2797C5.05365 24.5067 4.93233 24.7116 4.74883 24.8492C3.67604 25.6684 2.88691 26.8031 2.49236 28.0939C2.09781 29.3847 2.11768 30.7667 2.54917 32.0456C2.98067 33.3245 3.80209 34.4361 4.89798 35.224C5.99388 36.0119 7.30913 36.4366 8.65889 36.4384C8.88144 36.4384 9.10083 36.4275 9.31705 36.4056C9.43005 36.3942 9.54419 36.4052 9.65295 36.438C9.7617 36.4707 9.86293 36.5246 9.95087 36.5965C10.0388 36.6683 10.1117 36.7568 10.1655 36.8569C10.2192 36.9569 10.2527 37.0666 10.2641 37.1796C10.2754 37.2926 10.2644 37.4068 10.2317 37.5155C10.1989 37.6243 10.1451 37.7255 10.0732 37.8134C10.0013 37.9014 9.91281 37.9743 9.81275 38.028C9.71269 38.0818 9.60303 38.1153 9.49002 38.1266C9.21932 38.1535 8.94083 38.1682 8.65975 38.1682Z" fill="#28574E"/>
<path d="M6.03222 46.9725C5.90991 46.9722 5.78905 46.946 5.67762 46.8955C4.54824 46.3867 3.54945 45.6275 2.7569 44.6755C1.96436 43.7234 1.39884 42.6036 1.10317 41.4006C0.807495 40.1977 0.789429 38.9433 1.05034 37.7323C1.31124 36.5214 1.84428 35.3857 2.60908 34.4112C2.67837 34.3193 2.76531 34.2421 2.86481 34.1842C2.96431 34.1263 3.07436 34.0889 3.18852 34.0741C3.30268 34.0593 3.41865 34.0674 3.52962 34.098C3.6406 34.1286 3.74435 34.181 3.83479 34.2523C3.92524 34.3235 4.00055 34.412 4.05633 34.5127C4.1121 34.6134 4.14721 34.7243 4.1596 34.8387C4.17198 34.9531 4.1614 35.0689 4.12846 35.1792C4.09552 35.2895 4.0409 35.3921 3.96779 35.4811C3.07405 36.611 2.59044 38.011 2.59611 39.4516C2.59689 40.6902 2.9546 41.9024 3.62643 42.9429C4.29825 43.9835 5.25572 44.8084 6.38422 45.3189C6.56473 45.4001 6.71193 45.5407 6.80125 45.7174C6.89057 45.894 6.91661 46.0959 6.87501 46.2894C6.83342 46.4829 6.72671 46.6563 6.57269 46.7806C6.41868 46.9049 6.22669 46.9727 6.02876 46.9725H6.03222Z" fill="#28574E"/>
<path d="M36.4579 61.27C33.9858 61.2673 31.6158 60.284 29.8678 58.536C28.1198 56.788 27.1365 54.418 27.1338 51.9459V6.21011C27.0952 5.43636 27.2206 4.66319 27.5019 3.94134C27.7832 3.21948 28.2139 2.56525 28.7658 2.02157C29.3742 1.47745 30.1039 1.08671 30.8941 0.881946C31.6843 0.677186 32.5119 0.664343 33.308 0.84449C37.1375 1.75157 40.7299 3.46362 43.8464 5.86676C44.0253 6.01069 44.1397 6.21981 44.1645 6.44809C44.1892 6.67638 44.1222 6.90514 43.9783 7.08406C43.8344 7.26297 43.6253 7.37738 43.397 7.40211C43.1687 7.42685 42.9399 7.35988 42.761 7.21595C39.8544 4.99494 36.5178 3.40247 32.963 2.53963C32.438 2.41467 31.8909 2.41681 31.3669 2.54588C30.843 2.67494 30.3575 2.9272 29.9506 3.28168C29.5745 3.66647 29.2833 4.12598 29.0961 4.63044C28.9088 5.13491 28.8296 5.67308 28.8635 6.21011V51.9459C28.8642 53.6813 29.4591 55.3642 30.5492 56.7145C31.6394 58.0648 33.159 59.0011 34.8553 59.3676C36.5516 59.7342 38.3222 59.5088 39.8726 58.7291C41.423 57.9493 42.6597 56.6622 43.3768 55.0819C43.4716 54.8729 43.6456 54.7102 43.8604 54.6295C44.0753 54.5488 44.3134 54.5568 44.5223 54.6516C44.7313 54.7465 44.894 54.9204 44.9747 55.1353C45.0554 55.3501 45.0474 55.5882 44.9526 55.7971C44.2097 57.4273 43.0142 58.8097 41.5083 59.78C40.0023 60.7502 38.2493 61.2674 36.4579 61.27Z" fill="#28574E"/>
<path d="M39.6877 45.6334H39.6159C39.3873 45.6144 39.1756 45.5055 39.0274 45.3305C38.8792 45.1555 38.8065 44.9288 38.8254 44.7002C38.9503 43.7993 38.8909 42.8825 38.6506 42.0053C38.4104 41.1281 37.9943 40.309 37.4278 39.5975C36.0607 38.1821 34.2369 37.2961 32.2792 37.0963C32.0504 37.0798 31.8376 36.9731 31.6875 36.7996C31.5373 36.6261 31.4623 36.4001 31.4788 36.1713C31.4953 35.9425 31.6021 35.7297 31.7755 35.5795C31.949 35.4294 32.175 35.3544 32.4038 35.3709C34.8221 35.6045 37.0739 36.7063 38.7424 38.4723C39.4601 39.355 39.9904 40.3746 40.3011 41.469C40.6117 42.5634 40.6961 43.7096 40.5491 44.8377C40.5317 45.0543 40.4334 45.2564 40.2738 45.4038C40.1142 45.5513 39.905 45.6332 39.6877 45.6334Z" fill="#28574E"/>
<path d="M34.1685 53.1224H34.1279C34.0144 53.1172 33.9031 53.0897 33.8003 53.0414C33.6974 52.9932 33.6051 52.9252 33.5286 52.8413C33.452 52.7573 33.3928 52.6591 33.3542 52.5523C33.3156 52.4455 33.2984 52.3321 33.3037 52.2186C33.4446 49.1726 35.4312 43.4904 41.9203 43.7196C42.0339 43.7238 42.1455 43.7504 42.2488 43.7977C42.3522 43.845 42.4451 43.9123 42.5225 43.9956C42.5998 44.0788 42.66 44.1765 42.6996 44.2831C42.7392 44.3896 42.7574 44.5029 42.7532 44.6165C42.749 44.7301 42.7224 44.8417 42.6751 44.945C42.6277 45.0483 42.5605 45.1413 42.4772 45.2187C42.3939 45.296 42.2962 45.3562 42.1897 45.3958C42.0832 45.4353 41.9699 45.4536 41.8563 45.4493C35.4511 45.2184 35.0455 52.0093 35.0317 52.2991C35.021 52.5209 34.9254 52.7301 34.7647 52.8834C34.6041 53.0366 34.3906 53.1222 34.1685 53.1224Z" fill="#28574E"/>
<path d="M39.8481 29.0023C38.6507 29.0034 37.4677 28.7404 36.3835 28.2322C35.2993 27.7239 34.3404 26.9828 33.5753 26.0618C33.4993 25.975 33.4415 25.8738 33.4052 25.7644C33.369 25.6549 33.3549 25.5393 33.364 25.4243C33.3731 25.3094 33.405 25.1974 33.458 25.0949C33.511 24.9925 33.5839 24.9017 33.6725 24.8279C33.7611 24.7541 33.8636 24.6987 33.9739 24.665C34.0842 24.6314 34.2001 24.6202 34.3148 24.632C34.4295 24.6438 34.5407 24.6784 34.6419 24.7339C34.743 24.7893 34.832 24.8644 34.9037 24.9547C35.7497 25.9712 36.8883 26.7022 38.1646 27.0483C39.441 27.3943 40.793 27.3387 42.0365 26.8888C43.2801 26.4389 44.3547 25.6167 45.1142 24.5342C45.8737 23.4516 46.2811 22.1613 46.281 20.8388C46.281 20.6736 46.2749 20.5093 46.2628 20.3467C46.2522 20.2324 46.2645 20.1171 46.2989 20.0076C46.3333 19.898 46.3891 19.7964 46.4632 19.7087C46.5373 19.621 46.6281 19.5489 46.7303 19.4966C46.8326 19.4444 46.9442 19.413 47.0587 19.4043C47.1732 19.3957 47.2882 19.4099 47.3972 19.4461C47.5061 19.4824 47.6067 19.54 47.6932 19.6156C47.7796 19.6911 47.8502 19.7832 47.9007 19.8863C47.9512 19.9894 47.9807 20.1015 47.9874 20.2161C48.0029 20.422 48.0107 20.6295 48.0107 20.8388C48.0087 23.0031 47.148 25.0782 45.6177 26.6087C44.0874 28.1392 42.0124 29 39.8481 29.0023Z" fill="#28574E"/>
<path d="M44.9606 34.027H44.9433C40.7349 33.9448 38.7578 30.2449 38.3003 28.2998C38.2505 28.0778 38.2902 27.845 38.4108 27.652C38.5315 27.459 38.7233 27.3214 38.9448 27.2689C39.1663 27.2164 39.3995 27.2534 39.5939 27.3717C39.7883 27.4901 39.9282 27.6803 39.9833 27.9011C40.0266 28.0741 41.0704 32.2211 44.977 32.2972C45.2064 32.2994 45.4255 32.3926 45.5862 32.5564C45.7468 32.7201 45.8359 32.9409 45.8337 33.1703C45.8315 33.3997 45.7383 33.6188 45.5746 33.7795C45.4108 33.9401 45.19 34.0292 44.9606 34.027Z" fill="#28574E"/>
<path d="M19.5402 61.2704C17.7492 61.2673 15.9968 60.7499 14.4913 59.7797C12.9859 58.8095 11.7907 57.4273 11.0481 55.7975C10.9532 55.5886 10.9453 55.3505 11.026 55.1357C11.1066 54.9209 11.2694 54.7469 11.4783 54.652C11.6873 54.5572 11.9254 54.5492 12.1402 54.6299C12.355 54.7106 12.529 54.8733 12.6239 55.0823C13.3419 56.6611 14.5786 57.9466 16.1284 58.7253C17.6782 59.5039 19.4478 59.7287 21.143 59.3623C22.8383 58.9959 24.3572 58.0604 25.4471 56.7113C26.5371 55.3622 27.1326 53.6807 27.1346 51.9463V6.21052C27.1685 5.67349 27.0893 5.13532 26.902 4.63085C26.7147 4.12639 26.4236 3.66688 26.0474 3.28209C25.6408 2.92756 25.1554 2.67526 24.6316 2.54619C24.1078 2.41712 23.5607 2.41501 23.036 2.54003C19.4806 3.39898 16.1433 4.98956 13.237 7.21031C13.0576 7.339 12.8358 7.3942 12.617 7.36461C12.3982 7.33502 12.199 7.22287 12.0603 7.05115C11.9215 6.87942 11.8536 6.66113 11.8706 6.441C11.8876 6.22087 11.9882 6.01557 12.1516 5.86717C15.2684 3.4639 18.8611 1.75184 22.6909 0.844899C23.4869 0.664826 24.3144 0.677706 25.1044 0.882466C25.8944 1.08723 26.624 1.47793 27.2323 2.02198C27.7842 2.56566 28.2149 3.21989 28.4962 3.94174C28.7774 4.6636 28.9029 5.43677 28.8643 6.21052V51.9463C28.8615 54.4184 27.8783 56.7884 26.1303 58.5364C24.3823 60.2844 22.0122 61.2677 19.5402 61.2704Z" fill="#28574E"/>
<path d="M13.323 47.8267C13.1055 47.8275 12.8958 47.7463 12.7355 47.5993C12.5752 47.4523 12.4762 47.2503 12.4581 47.0336C12.3096 45.9041 12.3933 44.7562 12.7039 43.6602C13.0146 42.5642 13.5457 41.5431 14.2648 40.6596C15.9329 38.8934 18.1845 37.7916 20.6026 37.5582C20.8308 37.5447 21.0552 37.6209 21.2281 37.7705C21.4009 37.9201 21.5085 38.1313 21.528 38.359C21.5362 38.4723 21.5221 38.5861 21.4863 38.694C21.4506 38.8018 21.394 38.9015 21.3197 38.9874C21.2454 39.0734 21.1549 39.1438 21.0534 39.1948C20.9518 39.2458 20.8413 39.2762 20.728 39.2844C18.7675 39.4891 16.9416 40.377 15.5699 41.7925C15.0064 42.5043 14.5929 43.3229 14.3543 44.1988C14.1157 45.0748 14.0571 45.99 14.1818 46.8892C14.2007 47.1178 14.1281 47.3445 13.9798 47.5195C13.8316 47.6945 13.6199 47.8034 13.3913 47.8224L13.323 47.8267Z" fill="#28574E"/>
<path d="M18.841 55.3145C18.6186 55.3148 18.4047 55.2294 18.2437 55.076C18.0826 54.9227 17.9868 54.7133 17.9761 54.4911C17.9614 54.2014 17.5437 47.3915 11.1515 47.6397C10.9221 47.6482 10.6988 47.5652 10.5306 47.409C10.3624 47.2528 10.2631 47.0362 10.2546 46.8068C10.2461 46.5774 10.3291 46.3541 10.4853 46.1859C10.6415 46.0177 10.8581 45.9184 11.0875 45.91C17.5679 45.6738 19.5632 51.3629 19.7041 54.409C19.7094 54.5224 19.6922 54.6358 19.6536 54.7427C19.615 54.8495 19.5558 54.9477 19.4792 55.0316C19.4027 55.1155 19.3104 55.1835 19.2075 55.2318C19.1047 55.28 18.9934 55.3075 18.8799 55.3128L18.841 55.3145Z" fill="#28574E"/>
<path d="M27.9996 52.8109H27.9944C27.8808 52.8102 27.7684 52.7871 27.6637 52.743C27.5589 52.6988 27.4639 52.6345 27.3841 52.5536C27.3043 52.4727 27.2411 52.3769 27.1984 52.2716C27.1556 52.1663 27.134 52.0536 27.1348 51.9399C27.1916 50.2438 26.6468 48.5822 25.5966 47.2491C24.5465 45.9159 23.0587 44.9971 21.3964 44.6552C21.1711 44.6117 20.9724 44.4806 20.8438 44.2905C20.7153 44.1005 20.6675 43.8672 20.711 43.642C20.7545 43.4167 20.8856 43.218 21.0756 43.0895C21.2656 42.9609 21.4989 42.9131 21.7242 42.9566C21.796 42.9704 28.9121 44.4269 28.8645 51.9512C28.8631 52.1797 28.7714 52.3983 28.6094 52.5594C28.4473 52.7205 28.2281 52.8109 27.9996 52.8109Z" fill="#28574E"/>
<path d="M27.9993 18.8619C27.92 18.862 27.8411 18.8509 27.7649 18.829C27.6556 18.7982 27.5534 18.7461 27.4642 18.6758C27.375 18.6055 27.3005 18.5183 27.245 18.4192C27.1895 18.3201 27.1541 18.211 27.1408 18.0982C27.1274 17.9854 27.1364 17.8711 27.1673 17.7618C27.6222 16.1462 29.3571 13.178 32.6323 13.5049C32.8606 13.5278 33.0703 13.6405 33.2155 13.8181C33.3607 13.9957 33.4293 14.2237 33.4064 14.4519C33.3835 14.6802 33.2708 14.8899 33.0932 15.0351C32.9156 15.1803 32.6876 15.2489 32.4594 15.226C29.7921 14.9665 28.8399 18.1985 28.8269 18.2314C28.7761 18.4121 28.6678 18.5713 28.5185 18.685C28.3692 18.7988 28.187 18.8608 27.9993 18.8619Z" fill="#28574E"/>
<path d="M27.9993 23.1546C27.8114 23.1545 27.6286 23.0931 27.4787 22.9798C27.3287 22.8665 27.2197 22.7075 27.1682 22.5267C27.1293 22.3927 26.1779 19.2463 23.5358 19.5187C23.3074 19.5417 23.0793 19.4729 22.9016 19.3277C22.724 19.1825 22.6113 18.9726 22.5883 18.7442C22.5654 18.5159 22.6341 18.2878 22.7793 18.1101C22.9246 17.9324 23.1345 17.8197 23.3628 17.7968C26.6493 17.4707 28.373 20.4389 28.8279 22.0545C28.8587 22.1638 28.8677 22.2781 28.8544 22.3909C28.8411 22.5037 28.8056 22.6128 28.7501 22.7119C28.6946 22.811 28.6202 22.8982 28.531 22.9685C28.4418 23.0389 28.3396 23.0909 28.2303 23.1217C28.1552 23.1433 28.0775 23.1544 27.9993 23.1546Z" fill="#28574E"/>
<path d="M18.2592 30.0356C16.0951 30.0333 14.0203 29.1727 12.4899 27.6427C10.9595 26.1126 10.0985 24.038 10.0957 21.8739C10.0957 21.6637 10.1035 21.4553 10.1191 21.2503C10.1258 21.1357 10.1552 21.0236 10.2058 20.9204C10.2563 20.8173 10.3268 20.7253 10.4132 20.6497C10.4997 20.5742 10.6003 20.5166 10.7092 20.4803C10.8182 20.444 10.9333 20.4298 11.0477 20.4385C11.1622 20.4472 11.2739 20.4786 11.3761 20.5308C11.4783 20.5831 11.5691 20.6552 11.6432 20.7429C11.7173 20.8306 11.7732 20.9322 11.8076 21.0417C11.842 21.1513 11.8542 21.2666 11.8436 21.3809C11.8315 21.5435 11.8254 21.7078 11.8254 21.8739C11.8257 23.196 12.2333 24.486 12.9928 25.5682C13.7523 26.6504 14.8269 27.4723 16.0702 27.922C17.3135 28.3717 18.6652 28.4274 19.9413 28.0815C21.2174 27.7356 22.3559 27.0049 23.2019 25.9889C23.2746 25.9016 23.3637 25.8295 23.4643 25.7767C23.5648 25.7239 23.6748 25.6914 23.7879 25.681C23.901 25.6707 24.0151 25.6828 24.1235 25.7165C24.232 25.7503 24.3327 25.8051 24.42 25.8778C24.5073 25.9505 24.5794 26.0396 24.6322 26.1402C24.6851 26.2407 24.7176 26.3507 24.7279 26.4638C24.7382 26.5769 24.7261 26.691 24.6924 26.7994C24.6586 26.9079 24.6039 27.0086 24.5312 27.0959C23.766 28.0168 22.8073 28.7576 21.7232 29.2657C20.6391 29.7738 19.4564 30.0367 18.2592 30.0356Z" fill="#28574E"/>
<path d="M13.1427 35.0651C12.9133 35.0672 12.6924 34.9782 12.5287 34.8176C12.365 34.6569 12.2717 34.4378 12.2696 34.2084C12.2674 33.979 12.3564 33.7582 12.5171 33.5945C12.6777 33.4307 12.8968 33.3375 13.1262 33.3353C17.0319 33.2592 18.0767 29.1157 18.1199 28.9392C18.175 28.7184 18.315 28.5282 18.5094 28.4098C18.7038 28.2915 18.937 28.2545 19.1585 28.307C19.3799 28.3595 19.5718 28.4971 19.6924 28.6901C19.8131 28.8831 19.8528 29.1158 19.803 29.3379C19.3498 31.2787 17.3675 34.9786 13.1599 35.0651H13.1427Z" fill="#28574E"/>
</svg>
