<svg width="63" height="63" viewBox="0 0 63 63" fill="none" xmlns="http://www.w3.org/2000/svg">
<g clip-path="url(#clip0_1_172)">
<path d="M52.7514 7.78173C47.7332 2.76363 41.0613 0 33.9648 0C26.868 0 20.1961 2.76363 15.1781 7.78173C10.2117 12.7481 7.45358 19.3337 7.39735 26.3485L2.56259 36.018C2.34652 36.4502 2.49959 36.9758 2.91389 37.2244L7.39649 39.9139V54.1849C7.39649 54.6956 7.81054 55.1096 8.32119 55.1096H17.2596V62.0754C17.2596 62.5861 17.6736 63.0001 18.1843 63.0001C18.6949 63.0001 19.109 62.5861 19.109 62.0754V54.1849C19.109 53.6743 18.6949 53.2602 18.1843 53.2602H9.24564V39.3904C9.24564 39.0657 9.07522 38.7646 8.79676 38.5975L4.59939 36.0791L9.14794 26.982C9.21217 26.8535 9.24564 26.7121 9.24564 26.5684C9.24564 12.9383 20.3346 1.84927 33.9648 1.84927C47.5949 1.84927 58.6839 12.9383 58.6839 26.5684C58.6839 34.2277 55.2184 41.3296 49.1761 46.0536C48.9519 46.2288 48.8208 46.4976 48.8208 46.7822V62.0753C48.8208 62.5859 49.2348 63 49.7455 63C50.2563 63 50.6702 62.5859 50.6702 62.0753V47.2282C56.9446 42.153 60.5333 34.6494 60.5333 26.5685C60.5332 19.4718 57.7697 12.7998 52.7514 7.78173Z" fill="#28574E"/>
<path d="M42.8965 12.2109C41.5325 12.2109 40.4227 13.3207 40.4227 14.6847C40.4227 15.0793 40.516 15.4523 40.681 15.7836L33.9167 22.5479C33.7687 22.696 33.6855 22.8967 33.6855 23.1061V42.4755C33.6855 42.9115 34.039 43.265 34.4751 43.265C34.9112 43.265 35.2646 42.9115 35.2646 42.4755V23.4332L41.7976 16.9002C42.1289 17.0652 42.5019 17.1586 42.8965 17.1586C44.2605 17.1586 45.3703 16.0489 45.3703 14.6848C45.3703 13.3208 44.2605 12.2109 42.8965 12.2109ZM42.8965 15.5795C42.4031 15.5795 42.0017 15.1781 42.0017 14.6846C42.0017 14.1912 42.403 13.7898 42.8965 13.7898C43.3899 13.7898 43.7913 14.1912 43.7913 14.6846C43.7913 15.1781 43.3899 15.5795 42.8965 15.5795Z" fill="#1E232F"/>
<path d="M48.7906 29.8957C47.7026 29.8957 46.7771 30.602 46.4467 31.58H42.0009V26.8014L45.1653 23.637C45.4966 23.802 45.8697 23.8954 46.2642 23.8954C47.6282 23.8954 48.738 22.7856 48.738 21.4216C48.738 20.0575 47.6282 18.9478 46.2642 18.9478C44.9002 18.9478 43.7904 20.0575 43.7904 21.4216C43.7904 21.8161 43.8838 22.1891 44.0487 22.5204L40.653 25.9161C40.505 26.0642 40.4219 26.2649 40.4219 26.4743V45.8437C40.4219 46.2797 40.7753 46.6332 41.2114 46.6332C41.6475 46.6332 42.001 46.2797 42.001 45.8437V33.1589H46.4469C46.7772 34.1369 47.7027 34.8432 48.7908 34.8432C50.1549 34.8432 51.2646 33.7334 51.2646 32.3694C51.2644 31.0054 50.1547 29.8957 48.7906 29.8957ZM46.2642 20.5267C46.7576 20.5267 47.159 20.9281 47.159 21.4216C47.159 21.915 46.7577 22.3164 46.2642 22.3164C45.7708 22.3164 45.3694 21.915 45.3694 21.4216C45.3694 20.9281 45.7708 20.5267 46.2642 20.5267ZM48.7906 33.2642C48.2973 33.2642 47.8958 32.8629 47.8958 32.3694C47.8958 31.876 48.2972 31.4746 48.7906 31.4746C49.284 31.4746 49.6855 31.8759 49.6855 32.3694C49.6855 32.8629 49.284 33.2642 48.7906 33.2642Z" fill="#28574E"/>
<path d="M36.7166 14.1262L34.1631 11.5727C34.328 11.2414 34.4214 10.8683 34.4214 10.4738C34.4214 9.10978 33.3116 8 31.9476 8C30.5836 8 29.4738 9.10978 29.4738 10.4738C29.4738 11.8378 30.5836 12.9476 31.9476 12.9476C32.3421 12.9476 32.7152 12.8542 33.0465 12.6893L35.0418 14.6845L27.1785 22.5476C27.0304 22.6956 26.9473 22.8964 26.9473 23.1058V52.5809C26.9473 53.0169 27.3008 53.3704 27.7368 53.3704C28.1728 53.3704 28.5264 53.0169 28.5264 52.5809V23.4329L36.7166 15.2426C37.0249 14.9344 37.0249 14.4343 36.7166 14.1262ZM31.9476 11.3684C31.4542 11.3684 31.0528 10.9671 31.0528 10.4736C31.0528 9.98022 31.4541 9.57878 31.9476 9.57878C32.441 9.57878 32.8424 9.98012 32.8424 10.4736C32.8424 10.9671 32.441 11.3684 31.9476 11.3684Z" fill="#28574E"/>
<path d="M24.0322 30.9206L20.7798 28.2103C20.8877 27.9328 20.9476 27.6315 20.9476 27.3163C20.9476 25.9523 19.8378 24.8425 18.4738 24.8425C17.1097 24.8425 16 25.9523 16 27.3163C16 28.6804 17.1097 29.7901 18.4738 29.7901C18.9482 29.7901 19.3917 29.6556 19.7687 29.423L22.7371 31.8967V48.3699C22.7371 48.8059 23.0906 49.1595 23.5267 49.1595C23.9627 49.1595 24.3162 48.8059 24.3162 48.3699V31.5271C24.3163 31.2928 24.2122 31.0705 24.0322 30.9206ZM18.474 28.2112C17.9806 28.2112 17.5792 27.8098 17.5792 27.3163C17.5792 26.8229 17.9805 26.4215 18.474 26.4215C18.9675 26.4215 19.3688 26.8229 19.3688 27.3163C19.3688 27.8098 18.9674 28.2112 18.474 28.2112Z" fill="#1E232F"/>
<path d="M34.4751 45.4751C34.039 45.4751 33.6855 45.8286 33.6855 46.2646V54.2651C33.6855 54.7011 34.039 55.0546 34.4751 55.0546C34.9112 55.0546 35.2646 54.7011 35.2646 54.2651V46.2646C35.2646 45.8286 34.9111 45.4751 34.4751 45.4751Z" fill="#1E232F"/>
<path d="M31.1061 32.422C30.67 32.422 30.3165 32.7755 30.3165 33.2115V52.5809C30.3165 53.0169 30.67 53.3704 31.1061 53.3704C31.5422 53.3704 31.8956 53.0169 31.8956 52.5809V33.2115C31.8956 32.7754 31.5421 32.422 31.1061 32.422Z" fill="#1E232F"/>
<path d="M31.1061 24.8429C30.67 24.8429 30.3165 25.1964 30.3165 25.6324V28.1589C30.3165 28.5949 30.67 28.9484 31.1061 28.9484C31.5422 28.9484 31.8956 28.5949 31.8956 28.1589V25.6323C31.8956 25.1963 31.5421 24.8429 31.1061 24.8429Z" fill="#1E232F"/>
<path d="M37.8442 30.7378C37.4081 30.7378 37.0547 31.0913 37.0547 31.5273V51.7389C37.0547 52.1749 37.4081 52.5284 37.8442 52.5284C38.2803 52.5284 38.6338 52.1749 38.6338 51.7389V31.5273C38.6337 31.0913 38.2802 30.7378 37.8442 30.7378Z" fill="#1E232F"/>
<path d="M37.8442 23.1587C37.4081 23.1587 37.0547 23.5122 37.0547 23.9482V27.3169C37.0547 27.7529 37.4081 28.1064 37.8442 28.1064C38.2803 28.1064 38.6338 27.7529 38.6338 27.3169V23.9482C38.6337 23.5122 38.2802 23.1587 37.8442 23.1587Z" fill="#1E232F"/>
<path d="M28.2958 16.6525C27.9874 16.3442 27.4875 16.3442 27.1793 16.6525L21.2842 22.5476C20.9759 22.856 20.9759 23.3558 21.2842 23.6641L24.6528 27.0327C24.974 27.3539 25.516 27.3323 25.8114 26.9874C26.076 26.6784 26.0569 26.2036 25.7693 25.9162L22.959 23.1059L28.2958 17.7691C28.6041 17.4607 28.6041 16.9608 28.2958 16.6525Z" fill="#1E232F"/>
</g>
<defs>
<clipPath id="clip0_1_172">
<rect width="63" height="63" fill="white"/>
</clipPath>
</defs>
</svg>
