<svg width="65" height="59" viewBox="0 0 65 59" fill="none" xmlns="http://www.w3.org/2000/svg">
<path d="M12.8281 17.4375C19.2912 14.0188 26.294 14.0188 32.7572 17.434" stroke="#28574E" stroke-width="1.5" stroke-miterlimit="10" stroke-linecap="round" stroke-linejoin="round"/>
<path d="M5.11719 9.72562C8.84174 4.53285 15.6935 0.980957 22.7935 0.980957C29.8935 0.980957 36.7417 4.53272 40.4663 9.72562" stroke="#28574E" stroke-width="1.5" stroke-miterlimit="10" stroke-linecap="round" stroke-linejoin="round"/>
<path d="M43.1791 50.595L35.7589 58.0189L22.7931 45.0532M13.9657 36.2258L7.78334 30.0433C0.715737 22.9757 1.06473 15.3791 5.11682 9.72559L22.7931 27.4019" stroke="#28574E" stroke-width="1.5" stroke-miterlimit="10" stroke-linecap="round" stroke-linejoin="round"/>
<path d="M43.3015 19.3914C43.6003 15.8899 42.4991 12.5649 40.4658 9.72559L1 49.1915L9.82743 58.0189L31.2823 36.5641" stroke="#28574E" stroke-width="1.5" stroke-miterlimit="10" stroke-linecap="round" stroke-linejoin="round"/>
<path d="M47.3324 51.1385C56.2173 51.1385 63.4612 43.8946 63.4612 35.0096C63.4612 26.1282 56.2173 18.8843 47.3324 18.8843C38.451 18.8843 31.207 26.1282 31.207 35.0096C31.207 43.8946 38.451 51.1385 47.3324 51.1385Z" stroke="#1E232F" stroke-width="1.5" stroke-miterlimit="10" stroke-linecap="round" stroke-linejoin="round"/>
<path d="M50.7329 26.8115H43.9352V31.612H39.1348V38.4062H43.9352V43.2103H50.7329V38.4062H55.5336V31.612H50.7329V26.8115Z" stroke="#1E232F" stroke-width="1.5" stroke-miterlimit="10" stroke-linecap="round" stroke-linejoin="round"/>
</svg>
