<svg width="70" height="69" viewBox="0 0 70 69" fill="none" xmlns="http://www.w3.org/2000/svg">
<path d="M63.5946 29.4824C62.8162 28.9059 62.3946 27.9665 62.5243 27.027C62.6757 25.8633 62.7081 24.8598 62.6324 24.0698C62.3189 20.9312 60.027 14.8994 55.2054 11.6861C55.1838 10.8961 54.9568 9.32673 53.6054 7.56524C50.7838 3.92484 44.8811 1.54416 36.0595 0.497948C29.1189 -0.313403 23.3892 2.44092 18.7946 6.57241C18.3405 4.97106 17.4432 3.70065 16.2 2.91065C14.3189 1.71497 11.8757 1.67227 9.31351 2.80389C6.87027 3.88214 4.58919 5.91051 2.89189 8.51538C-0.686486 14.0027 -0.545946 20.4188 3.21622 22.8208C3.51892 23.0129 3.84324 23.1624 4.17838 23.3012C4.21081 23.3119 4.23243 23.3332 4.26486 23.3439C4.28649 23.3546 4.30811 23.3439 4.31892 23.3546C5 23.6001 5.72432 23.7389 6.5027 23.7389C6.83784 23.7389 7.19459 23.7069 7.54054 23.6535C5.45405 30.8596 6.70811 38.5888 11.2162 44.5031C13.3459 47.3108 16.0703 49.574 19.3027 51.2501C19.2378 53.3532 18.7189 61.9898 14.827 67.4131C14.5676 67.7761 14.6541 68.2778 15.0216 68.534C15.1622 68.6301 15.3243 68.6835 15.4865 68.6835C15.7459 68.6835 15.9946 68.566 16.1459 68.3419C20.4919 62.2887 20.8919 52.9369 20.9351 51.1006C21.973 49.9797 26.0378 45.1009 25.2486 37.6066C24.8919 34.2011 25.7243 31.4574 27.6595 29.6746C29.4432 28.0305 32.027 27.3579 34.7405 27.817C36.773 28.1586 37.8108 29.6532 38.7297 30.9663C39.4432 31.9912 40.1243 32.9627 41.2054 33.0908C41.9081 33.1655 42.6324 32.8559 43.4108 32.1406C44.373 31.2652 44.9784 29.9948 45.1189 28.575C45.3135 26.6534 45.9946 23.2478 48.427 21.9667C48.6108 21.8706 48.7838 21.7532 48.9568 21.6358C48.9568 21.7852 49 21.9454 49.0865 22.0735C49.3027 22.3831 49.5297 22.682 49.7676 22.9702C49.9297 23.1731 50.1676 23.2692 50.4054 23.2692C50.5784 23.2692 50.7622 23.2158 50.9135 23.0984C51.2703 22.8208 51.3243 22.319 51.0432 21.9667C50.827 21.6998 50.6216 21.4329 50.4162 21.1447C50.2757 20.9525 50.0703 20.8458 49.8432 20.8138C50.654 19.8529 51.0541 18.5825 50.9676 17.0879C50.8595 15.209 52.0919 13.5863 54.0378 13.0525C54.1027 13.0312 54.1676 13.0098 54.2432 12.9885C58.3946 15.7535 60.6865 21.1661 60.9892 24.23C61.0432 24.8171 61.0216 25.5751 60.9351 26.4398C60.7838 26.4825 60.6432 26.5252 60.4919 26.5573C60.0486 26.6427 59.7568 27.059 59.8432 27.4967C59.9189 27.8811 60.2541 28.1479 60.6432 28.1479C60.6973 28.1479 60.7405 28.1479 60.7946 28.1373C60.8486 28.1266 60.8919 28.1052 60.9459 28.0946C61.1405 29.1515 61.7243 30.1123 62.6216 30.7742C67.173 34.1156 68.1027 35.8344 68.0811 36.6885C68.0595 37.3717 67.3784 37.8735 66.3189 38.5674L66.027 38.7596C64.9243 39.4962 64.2973 40.3289 64.1892 41.215C64.0595 42.2185 64.6324 42.8911 64.6865 42.9551C65.1946 43.5316 65.4216 44.0547 65.3568 44.4924C65.2703 45.0902 64.654 45.5493 64.2973 45.7735C63.9622 45.987 63.7567 46.3393 63.7567 46.7236C63.7459 47.1079 63.9405 47.4709 64.2757 47.6951C64.6108 47.9193 64.8703 48.357 64.8378 48.6239C64.8162 48.7733 64.6649 48.9015 64.373 49.0082C63.6486 49.2751 63.1081 49.7662 62.8162 50.4174C62.2973 51.5597 62.6865 52.8621 62.8162 53.2465C63.054 55.104 62.6973 56.4171 61.7351 57.1538C61.3135 57.4847 60.773 57.6769 60.1784 57.805C60.0595 57.6235 59.8757 57.4847 59.6486 57.4313C59.2595 57.3566 58.8919 57.5808 58.7513 57.9331C57.0757 57.9438 52.2216 56.2997 51.6054 56.1075C51.5946 56.1075 51.5946 56.0969 51.5946 56.0969C49.3892 55.3496 44.827 53.3746 41.9838 50.9085C42.1135 50.4815 41.8757 50.0438 41.4432 49.905C41.2811 49.8623 41.1189 49.8729 40.9676 49.9263C40.1243 48.9869 39.5622 47.9833 39.5189 46.9692C39.4973 46.5315 39.1189 46.1685 38.6649 46.2112C38.2108 46.2325 37.8649 46.6062 37.8865 47.0546C38.0919 51.1327 43.6595 54.3994 47.4973 56.1716C47.4649 56.1823 47.4324 56.1929 47.4 56.2036C44.7513 57.3886 42.4811 61.0184 40.2432 67.6052C40.1027 68.0216 40.3297 68.4806 40.7513 68.6194C40.8378 68.6515 40.9243 68.6621 41.0108 68.6621C41.3459 68.6621 41.6703 68.4486 41.7784 68.1177C43.8324 62.0646 45.8865 58.6483 48.0595 57.6662C49.0324 57.2285 49.9946 57.3139 50.9676 57.6021C51 57.6128 51.0216 57.6235 51.0324 57.6235H51.0432C51.6054 57.7943 57.0973 59.6519 59.2919 59.5238H59.3135C59.3568 59.5238 59.3892 59.5131 59.4324 59.5024C60.654 59.417 61.8108 59.0967 62.7081 58.4028C64.1676 57.2819 64.7297 55.435 64.3838 52.9262C64.373 52.8621 64.3622 52.7981 64.3405 52.7447C64.2757 52.5632 63.6919 50.9512 64.9135 50.4921C66.0919 50.0438 66.3622 49.2324 66.4054 48.7947C66.4919 48.0261 66.1135 47.2788 65.6162 46.7663C66.2 46.2966 66.773 45.624 66.9135 44.7166C67.054 43.7878 66.6973 42.8377 65.8649 41.8875C65.8649 41.8875 65.7243 41.6847 65.7568 41.4071C65.8108 41.0015 66.2108 40.5317 66.8919 40.0834L67.173 39.9019C68.2649 39.1866 69.6162 38.3005 69.6595 36.7312C69.7568 34.8523 67.8757 32.6211 63.5946 29.4824ZM4.25405 9.38011C5.78919 7.03146 7.82162 5.2166 9.97297 4.26646C12.0162 3.3697 13.9081 3.3697 15.3135 4.26646C15.3351 4.27714 15.3568 4.29849 15.3784 4.30916C12.0486 7.44781 9 11.4298 6.31892 16.1698C5.36757 17.8459 4.6 19.5967 4.0054 21.3902C1.08649 19.4152 1.18378 14.0667 4.25405 9.38011ZM5.50811 22.0094C6.07027 20.2693 6.81622 18.5719 7.73513 16.9492C10.3405 12.3266 13.2919 8.47268 16.5135 5.44078C16.9568 6.10268 17.2595 6.9247 17.4 7.86416C14.2973 10.9921 11.7676 14.6966 9.8 18.1875C9.11892 19.3939 8.55676 20.6323 8.09189 21.892C7.34594 22.0948 6.42703 22.2016 5.50811 22.0094ZM49.3568 17.1734C49.4216 18.2623 49.173 19.7355 47.6703 20.5362C44.5676 22.1696 43.7243 26.1729 43.5081 28.4042C43.4 29.429 42.9784 30.3365 42.3081 30.945C41.7568 31.4467 41.4757 31.4894 41.3892 31.4681C41.0432 31.4254 40.5243 30.6888 40.0703 30.0375C39.0757 28.6177 37.7243 26.6747 35.0108 26.2156C31.7892 25.6712 28.6973 26.4932 26.5459 28.4896C24.9243 29.9842 23.1081 32.8025 23.627 37.7561C24.2865 44.0654 21.0757 48.4317 19.9405 49.7555C16.9676 48.1969 14.4703 46.0938 12.5135 43.5209C7.23784 36.5817 6.74054 26.9523 11.2378 18.9775C13.1838 15.54 15.6811 11.8782 18.7405 8.83565C18.8162 8.78227 18.8919 8.71822 18.9459 8.63281C22.9135 4.76822 27.8108 1.93916 33.6595 1.93916C34.3838 1.93916 35.1189 1.98187 35.8649 2.06727C46.2216 3.29497 50.4919 6.20943 52.2649 8.45133C53.3027 9.75376 53.5405 10.8961 53.5838 11.5046C50.9459 12.2519 49.2054 14.5685 49.3568 17.1734Z" fill="#28574E"/>
<path d="M57.8324 40.6385L56.9568 40.0621C56.5784 39.8165 56.0811 39.9233 55.8324 40.2862C55.5838 40.6599 55.6811 41.151 56.0595 41.3965L56.9351 41.973C57.0757 42.0691 57.227 42.1118 57.3892 42.1118C57.6487 42.1118 57.9081 41.9837 58.0703 41.7488C58.3081 41.3858 58.2 40.8841 57.8324 40.6385Z" fill="#1E232F"/>
<path d="M55.6913 47.5992L56.5021 48.1329C56.5129 48.1329 56.5778 48.1863 56.5886 48.1863C56.7183 48.261 56.8589 48.3038 56.9886 48.3038C57.2589 48.3038 57.5075 48.165 57.6697 47.9194C57.9075 47.5458 57.7778 47.044 57.3994 46.7985L56.5886 46.2647C56.2102 46.0192 55.7129 46.1259 55.4643 46.4889C55.2156 46.8625 55.3237 47.3643 55.6913 47.5992Z" fill="#1E232F"/>
<path d="M60.037 44.2042C60.1883 44.439 60.4586 44.5671 60.7181 44.5671C60.8694 44.5671 61.0208 44.5244 61.1613 44.439C61.5397 44.1935 61.6478 43.7024 61.3992 43.3288C61.1505 42.9551 60.837 42.6349 60.4586 42.3786C60.091 42.1224 59.5829 42.2078 59.3235 42.5815C59.064 42.9444 59.1613 43.4462 59.5289 43.7024C59.7343 43.8198 59.8965 44.0013 60.037 44.2042Z" fill="#1E232F"/>
<path d="M43.8656 36.0054C43.4332 35.9307 43.0007 36.2083 42.9142 36.6353C42.871 36.8595 42.8494 37.0837 42.8494 37.3079C42.8494 37.5321 42.871 37.7562 42.9142 37.9698C42.9899 38.3541 43.3251 38.621 43.7142 38.621C43.7683 38.621 43.8223 38.621 43.8656 38.6103C44.3088 38.5249 44.6007 38.1085 44.5142 37.6708C44.4926 37.5534 44.4818 37.436 44.4818 37.3079C44.4818 37.1904 44.4926 37.0623 44.5142 36.9449C44.5899 36.5072 44.3088 36.0908 43.8656 36.0054Z" fill="#1E232F"/>
<path d="M59.3022 47.898C59.4643 48.1222 59.713 48.2503 59.9724 48.2503C60.1346 48.2503 60.286 48.2076 60.4265 48.1115C60.8049 47.8553 61.1184 47.535 61.3887 47.14L61.3995 47.1186C61.6373 46.745 61.5184 46.2646 61.14 46.0297C60.7616 45.7949 60.2643 45.9016 60.0157 46.2753C59.8751 46.4781 59.7022 46.6489 59.5076 46.7877C59.1508 47.0332 59.0535 47.535 59.3022 47.898Z" fill="#1E232F"/>
<path d="M45.2371 40.7558L46.1127 41.3323C46.2533 41.4284 46.4046 41.4711 46.5668 41.4711C46.8262 41.4711 47.0857 41.343 47.2479 41.1081C47.4965 40.7345 47.3992 40.2434 47.0208 39.9979L46.1343 39.4107C45.756 39.1652 45.2587 39.2719 45.01 39.6349C44.7614 40.0085 44.8587 40.5103 45.2371 40.7558Z" fill="#1E232F"/>
<path d="M52.2108 45.3145L53.0865 45.891C53.227 45.9871 53.3784 46.0298 53.5405 46.0298C53.8 46.0298 54.0595 45.9016 54.2216 45.6668C54.4703 45.2931 54.373 44.8021 53.9946 44.5565L53.1189 43.98C52.7405 43.7345 52.2432 43.8412 51.9946 44.2042C51.7351 44.5779 51.8324 45.0689 52.2108 45.3145Z" fill="#1E232F"/>
<path d="M49.9838 35.5035C49.6054 35.2579 49.1081 35.3647 48.8595 35.7277C48.6108 36.1013 48.7081 36.5924 49.0865 36.8379L49.9622 37.4144C50.1027 37.5105 50.254 37.5532 50.4162 37.5532C50.6757 37.5532 50.9351 37.4251 51.0973 37.1902C51.3459 36.8166 51.2486 36.3255 50.8703 36.08L49.9838 35.5035Z" fill="#1E232F"/>
<path d="M46.9559 33.881C46.5018 33.8063 46.0478 33.8276 45.6045 33.9237C45.1613 34.0198 44.891 34.4468 44.9883 34.8845C45.0748 35.2582 45.4099 35.5144 45.7775 35.5144C45.8315 35.5144 45.8964 35.5037 45.9505 35.493C46.1883 35.4396 46.437 35.429 46.6748 35.4717C47.118 35.5357 47.5397 35.2475 47.6153 34.8098C47.691 34.3614 47.3991 33.9557 46.9559 33.881Z" fill="#1E232F"/>
<path d="M48.4924 41.9195C48.2438 42.2932 48.3411 42.7843 48.7195 43.0298L49.5951 43.5956C49.7357 43.6917 49.887 43.7344 50.0492 43.7344C50.3087 43.7344 50.5681 43.6063 50.7303 43.3714C50.9789 42.9978 50.8816 42.5067 50.5033 42.2612L49.6276 41.6954C49.2492 41.4498 48.7411 41.5566 48.4924 41.9195Z" fill="#1E232F"/>
<path d="M53.4761 37.788C53.0978 37.5424 52.6005 37.6385 52.3518 38.0122C52.1032 38.3858 52.2005 38.8769 52.5788 39.1224L53.4545 39.6989C53.5951 39.795 53.7464 39.8377 53.9086 39.8377C54.168 39.8377 54.4275 39.7096 54.5897 39.4747C54.8383 39.1011 54.741 38.61 54.3626 38.3644L53.4761 37.788Z" fill="#1E232F"/>
<path d="M50.9236 51.0044C50.5236 50.8122 50.0371 50.9724 49.8317 51.378C49.6371 51.773 49.7993 52.2534 50.2101 52.4563L51.0966 52.8833C51.2155 52.9367 51.3344 52.9687 51.4533 52.9687C51.756 52.9687 52.0479 52.7979 52.1885 52.5203C52.3831 52.1253 52.2209 51.6449 51.8101 51.4421L50.9236 51.0044Z" fill="#1E232F"/>
<path d="M47.367 49.3071C46.967 49.115 46.4805 49.2751 46.2751 49.6808C46.0805 50.0758 46.2426 50.5562 46.6534 50.759L47.5399 51.186C47.6589 51.2394 47.7778 51.2714 47.8967 51.2714C48.1994 51.2714 48.4913 51.1006 48.6318 50.8231C48.8264 50.4281 48.6643 49.9477 48.2534 49.7448L47.367 49.3071Z" fill="#1E232F"/>
<path d="M53.3884 53.0759C53.1939 53.4709 53.3668 53.9513 53.7668 54.1541L54.6533 54.5812C54.7722 54.6345 54.8912 54.6666 55.0101 54.6666C55.3128 54.6666 55.6047 54.4958 55.7452 54.2182C55.9398 53.8232 55.7668 53.3428 55.3668 53.1399L54.4803 52.7129C54.0695 52.5101 53.583 52.6809 53.3884 53.0759Z" fill="#1E232F"/>
<path d="M42.5351 48.9762C42.6108 49.4139 43.0432 49.7021 43.4865 49.6274C43.7027 49.5847 43.9405 49.5847 44.1676 49.6274C44.2216 49.6381 44.2757 49.6381 44.3189 49.6381C44.6973 49.6381 45.0432 49.3712 45.1189 48.9868C45.2054 48.5491 44.9135 48.1328 44.4703 48.0474C44.0378 47.962 43.6054 47.962 43.1946 48.0367C42.7514 48.1221 42.4595 48.5385 42.5351 48.9762Z" fill="#1E232F"/>
<path d="M58.3946 54.5809L58.027 54.3994C57.627 54.2072 57.1405 54.3674 56.9351 54.7731C56.7405 55.1681 56.9027 55.6485 57.3135 55.8513L57.6811 56.0328C57.8 56.0862 57.9189 56.1609 58.027 56.2463C58.1784 56.3637 58.3514 56.4171 58.5243 56.4171C58.7622 56.4171 59.0108 56.3104 59.173 56.1075C59.4432 55.7552 59.3784 55.2535 59.0324 54.9759C58.827 54.8158 58.6216 54.6877 58.3946 54.5809Z" fill="#1E232F"/>
<path d="M57.6054 26.4612C57.2919 26.3865 56.9676 26.3011 56.6541 26.1837C56.2324 26.0342 55.7676 26.2477 55.6162 26.6747C55.4649 27.0911 55.6811 27.5501 56.1135 27.6996C56.4919 27.8277 56.8703 27.9451 57.2487 28.0306C57.3135 28.0412 57.3676 28.0519 57.4324 28.0519C57.8 28.0519 58.1351 27.7957 58.2216 27.4327C58.3189 26.995 58.0487 26.5573 57.6054 26.4612Z" fill="#1E232F"/>
<path d="M53.1946 24.1553C52.8487 23.867 52.3405 23.9097 52.0487 24.2513C51.7568 24.593 51.8 25.0947 52.1459 25.383C52.4378 25.6285 52.7405 25.8634 53.0432 26.0769C53.1838 26.1836 53.3568 26.2263 53.5189 26.2263C53.7676 26.2263 54.0162 26.1089 54.1784 25.8954C54.4378 25.5324 54.3622 25.0307 53.9946 24.7744C53.7351 24.5823 53.4649 24.3794 53.1946 24.1553Z" fill="#1E232F"/>
</svg>
