<svg width="66" height="72" viewBox="0 0 66 72" fill="none" xmlns="http://www.w3.org/2000/svg">
<mask id="path-1-inside-1_1_300" fill="white">
<path d="M59.2746 18.4342C62.2497 18.4342 64.6697 16.0142 64.6697 13.0403C64.6697 10.0664 62.2497 7.64642 59.2746 7.64642C56.3007 7.64642 53.8807 10.0664 53.8807 13.0403C53.8807 13.9387 54.1224 14.7735 54.5132 15.5193L49.7876 19.4564C46.305 15.9622 41.4892 13.7954 36.1774 13.7954C35.8397 13.7954 35.5114 13.8289 35.1784 13.8462L34.6326 8.98188C35.9843 8.37023 36.9312 7.01626 36.9312 5.43913C36.9312 3.29313 35.1842 1.54604 33.0382 1.54604C30.8922 1.54604 29.1451 3.29313 29.1451 5.43913C29.1451 7.35504 30.5395 8.94373 32.3652 9.26401L32.9075 14.0948C30.3822 14.5307 28.027 15.4557 25.9388 16.7773L20.3934 9.04085C21.2583 8.08348 21.8006 6.82779 21.8006 5.43913C21.8006 2.46526 19.3805 0.0452271 16.4067 0.0452271C13.4328 0.0452271 11.0127 2.46526 11.0127 5.43913C11.0127 8.41417 13.4328 10.8342 16.4067 10.8342C17.1675 10.8342 17.889 10.6723 18.5469 10.3867L24.0761 18.1012C20.383 21.1017 17.8381 25.4446 17.1547 30.3771L10.726 30.1887C10.4716 28.9792 9.83915 27.8947 8.86559 27.1084C7.90822 26.3337 6.70456 25.9094 5.47662 25.9094C3.83822 25.9094 2.3085 26.639 1.27943 27.912C0.374091 29.0336 -0.0410027 30.4384 0.110466 31.8722C0.261935 33.3048 0.962623 34.5928 2.08303 35.4982C3.0404 36.2729 4.24406 36.6972 5.472 36.6972C7.10925 36.6972 8.63897 35.9676 9.66918 34.6946C10.1999 34.0367 10.5398 33.277 10.7179 32.4757L16.9686 32.6584C16.9663 32.781 16.9501 32.9001 16.9501 33.0226C16.9501 38.161 18.9874 42.8242 22.2827 46.2767L19.7794 48.9662C19.2672 48.7176 18.6983 48.565 18.0913 48.565C15.9453 48.565 14.1982 50.312 14.1982 52.458C14.1982 54.604 15.9453 56.3511 18.0913 56.3511C20.2373 56.3511 21.9844 54.604 21.9844 52.458C21.9844 51.7516 21.7809 51.0971 21.4502 50.5248L23.9442 47.8458C27.2708 50.5953 31.5327 52.2499 36.1751 52.2499C36.7821 52.2499 37.381 52.2141 37.973 52.1586L39.4207 61.5346C38.1939 62.004 37.1579 62.9048 36.5393 64.1246C35.1957 66.7782 36.2618 70.0307 38.9154 71.3755C39.6669 71.7559 40.5087 71.957 41.347 71.957C43.3935 71.957 45.2389 70.8239 46.1639 68.9994C46.8149 67.7136 46.9259 66.2521 46.4761 64.882C46.0275 63.513 45.0724 62.4006 43.7867 61.7497C43.1311 61.4178 42.4084 61.2328 41.6777 61.1877L40.23 51.8105C46.9397 50.3629 52.3522 45.4061 54.4507 38.96L58.1461 39.922C58.2386 41.987 59.9348 43.644 62.0219 43.644C64.169 43.644 65.9161 41.8969 65.9161 39.7509C65.9161 37.6049 64.169 35.8578 62.0219 35.8578C60.6251 35.8578 59.4076 36.6035 58.7208 37.7112L55.03 36.7504C55.2682 35.5433 55.4 34.298 55.4 33.0226C55.4 28.5537 53.8541 24.4467 51.2873 21.178L55.9712 17.2757C56.8893 17.9902 58.0259 18.4342 59.2746 18.4342ZM31.4287 5.43798C31.4287 4.55113 32.1502 3.82963 33.037 3.82963C33.9238 3.82963 34.6453 4.55113 34.6453 5.43798C34.6453 6.32482 33.925 7.04632 33.0382 7.04632C32.1502 7.04632 31.4287 6.32482 31.4287 5.43798ZM13.2975 5.43798C13.2975 3.72326 14.6919 2.32882 16.4067 2.32882C18.1214 2.32882 19.5158 3.72326 19.5158 5.43798C19.5158 7.1527 18.1214 8.54829 16.4067 8.54829C14.6919 8.54829 13.2975 7.1527 13.2975 5.43798ZM7.89319 33.2562C6.84909 34.5477 4.81409 34.7651 3.52025 33.7199C2.8739 33.1972 2.47037 32.4549 2.3825 31.6294C2.29578 30.8026 2.53397 29.9933 3.05659 29.3469C3.64975 28.6127 4.53197 28.1918 5.47778 28.1918C6.19465 28.1918 6.87106 28.43 7.42953 28.8821C8.07587 29.4047 8.4794 30.147 8.56728 30.9726C8.654 31.8005 8.41465 32.611 7.89319 33.2562ZM44.3081 65.5919C44.5671 66.3816 44.5035 67.2245 44.1278 67.9645C43.5959 69.0179 42.531 69.67 41.3504 69.67C40.8613 69.67 40.3896 69.5578 39.9502 69.3347C38.4205 68.56 37.8065 66.6857 38.5812 65.1571C39.1131 64.1038 40.178 63.4517 41.3585 63.4517C41.8488 63.4517 42.3194 63.5638 42.7587 63.787C43.4999 64.1628 44.0503 64.8033 44.3081 65.5919ZM62.0253 38.1414C62.9133 38.1414 63.6348 38.8629 63.6348 39.7497C63.6348 40.6365 62.9133 41.358 62.0253 41.358C61.1385 41.358 60.417 40.6365 60.417 39.7497C60.417 38.8629 61.1385 38.1414 62.0253 38.1414ZM18.0925 54.0664C17.2056 54.0664 16.4841 53.3449 16.4841 52.458C16.4841 51.5712 17.2056 50.8497 18.0925 50.8497C18.9793 50.8497 19.7008 51.5712 19.7008 52.458C19.7008 53.3449 18.9805 54.0664 18.0925 54.0664ZM36.1774 49.964C26.8349 49.964 19.236 42.364 19.236 33.0215C19.236 23.679 26.836 16.0801 36.1774 16.0801C45.5187 16.0801 53.1188 23.679 53.1188 33.0215C53.1188 42.364 45.5187 49.964 36.1774 49.964ZM59.2746 9.93001C60.9893 9.93001 62.3849 11.3244 62.3849 13.0392C62.3849 14.7539 60.9893 16.1483 59.2746 16.1483C57.5599 16.1483 56.1655 14.7539 56.1655 13.0392C56.1655 11.3244 57.5599 9.93001 59.2746 9.93001Z"/>
</mask>
<path d="M59.2746 18.4342C62.2497 18.4342 64.6697 16.0142 64.6697 13.0403C64.6697 10.0664 62.2497 7.64642 59.2746 7.64642C56.3007 7.64642 53.8807 10.0664 53.8807 13.0403C53.8807 13.9387 54.1224 14.7735 54.5132 15.5193L49.7876 19.4564C46.305 15.9622 41.4892 13.7954 36.1774 13.7954C35.8397 13.7954 35.5114 13.8289 35.1784 13.8462L34.6326 8.98188C35.9843 8.37023 36.9312 7.01626 36.9312 5.43913C36.9312 3.29313 35.1842 1.54604 33.0382 1.54604C30.8922 1.54604 29.1451 3.29313 29.1451 5.43913C29.1451 7.35504 30.5395 8.94373 32.3652 9.26401L32.9075 14.0948C30.3822 14.5307 28.027 15.4557 25.9388 16.7773L20.3934 9.04085C21.2583 8.08348 21.8006 6.82779 21.8006 5.43913C21.8006 2.46526 19.3805 0.0452271 16.4067 0.0452271C13.4328 0.0452271 11.0127 2.46526 11.0127 5.43913C11.0127 8.41417 13.4328 10.8342 16.4067 10.8342C17.1675 10.8342 17.889 10.6723 18.5469 10.3867L24.0761 18.1012C20.383 21.1017 17.8381 25.4446 17.1547 30.3771L10.726 30.1887C10.4716 28.9792 9.83915 27.8947 8.86559 27.1084C7.90822 26.3337 6.70456 25.9094 5.47662 25.9094C3.83822 25.9094 2.3085 26.639 1.27943 27.912C0.374091 29.0336 -0.0410027 30.4384 0.110466 31.8722C0.261935 33.3048 0.962623 34.5928 2.08303 35.4982C3.0404 36.2729 4.24406 36.6972 5.472 36.6972C7.10925 36.6972 8.63897 35.9676 9.66918 34.6946C10.1999 34.0367 10.5398 33.277 10.7179 32.4757L16.9686 32.6584C16.9663 32.781 16.9501 32.9001 16.9501 33.0226C16.9501 38.161 18.9874 42.8242 22.2827 46.2767L19.7794 48.9662C19.2672 48.7176 18.6983 48.565 18.0913 48.565C15.9453 48.565 14.1982 50.312 14.1982 52.458C14.1982 54.604 15.9453 56.3511 18.0913 56.3511C20.2373 56.3511 21.9844 54.604 21.9844 52.458C21.9844 51.7516 21.7809 51.0971 21.4502 50.5248L23.9442 47.8458C27.2708 50.5953 31.5327 52.2499 36.1751 52.2499C36.7821 52.2499 37.381 52.2141 37.973 52.1586L39.4207 61.5346C38.1939 62.004 37.1579 62.9048 36.5393 64.1246C35.1957 66.7782 36.2618 70.0307 38.9154 71.3755C39.6669 71.7559 40.5087 71.957 41.347 71.957C43.3935 71.957 45.2389 70.8239 46.1639 68.9994C46.8149 67.7136 46.9259 66.2521 46.4761 64.882C46.0275 63.513 45.0724 62.4006 43.7867 61.7497C43.1311 61.4178 42.4084 61.2328 41.6777 61.1877L40.23 51.8105C46.9397 50.3629 52.3522 45.4061 54.4507 38.96L58.1461 39.922C58.2386 41.987 59.9348 43.644 62.0219 43.644C64.169 43.644 65.9161 41.8969 65.9161 39.7509C65.9161 37.6049 64.169 35.8578 62.0219 35.8578C60.6251 35.8578 59.4076 36.6035 58.7208 37.7112L55.03 36.7504C55.2682 35.5433 55.4 34.298 55.4 33.0226C55.4 28.5537 53.8541 24.4467 51.2873 21.178L55.9712 17.2757C56.8893 17.9902 58.0259 18.4342 59.2746 18.4342ZM31.4287 5.43798C31.4287 4.55113 32.1502 3.82963 33.037 3.82963C33.9238 3.82963 34.6453 4.55113 34.6453 5.43798C34.6453 6.32482 33.925 7.04632 33.0382 7.04632C32.1502 7.04632 31.4287 6.32482 31.4287 5.43798ZM13.2975 5.43798C13.2975 3.72326 14.6919 2.32882 16.4067 2.32882C18.1214 2.32882 19.5158 3.72326 19.5158 5.43798C19.5158 7.1527 18.1214 8.54829 16.4067 8.54829C14.6919 8.54829 13.2975 7.1527 13.2975 5.43798ZM7.89319 33.2562C6.84909 34.5477 4.81409 34.7651 3.52025 33.7199C2.8739 33.1972 2.47037 32.4549 2.3825 31.6294C2.29578 30.8026 2.53397 29.9933 3.05659 29.3469C3.64975 28.6127 4.53197 28.1918 5.47778 28.1918C6.19465 28.1918 6.87106 28.43 7.42953 28.8821C8.07587 29.4047 8.4794 30.147 8.56728 30.9726C8.654 31.8005 8.41465 32.611 7.89319 33.2562ZM44.3081 65.5919C44.5671 66.3816 44.5035 67.2245 44.1278 67.9645C43.5959 69.0179 42.531 69.67 41.3504 69.67C40.8613 69.67 40.3896 69.5578 39.9502 69.3347C38.4205 68.56 37.8065 66.6857 38.5812 65.1571C39.1131 64.1038 40.178 63.4517 41.3585 63.4517C41.8488 63.4517 42.3194 63.5638 42.7587 63.787C43.4999 64.1628 44.0503 64.8033 44.3081 65.5919ZM62.0253 38.1414C62.9133 38.1414 63.6348 38.8629 63.6348 39.7497C63.6348 40.6365 62.9133 41.358 62.0253 41.358C61.1385 41.358 60.417 40.6365 60.417 39.7497C60.417 38.8629 61.1385 38.1414 62.0253 38.1414ZM18.0925 54.0664C17.2056 54.0664 16.4841 53.3449 16.4841 52.458C16.4841 51.5712 17.2056 50.8497 18.0925 50.8497C18.9793 50.8497 19.7008 51.5712 19.7008 52.458C19.7008 53.3449 18.9805 54.0664 18.0925 54.0664ZM36.1774 49.964C26.8349 49.964 19.236 42.364 19.236 33.0215C19.236 23.679 26.836 16.0801 36.1774 16.0801C45.5187 16.0801 53.1188 23.679 53.1188 33.0215C53.1188 42.364 45.5187 49.964 36.1774 49.964ZM59.2746 9.93001C60.9893 9.93001 62.3849 11.3244 62.3849 13.0392C62.3849 14.7539 60.9893 16.1483 59.2746 16.1483C57.5599 16.1483 56.1655 14.7539 56.1655 13.0392C56.1655 11.3244 57.5599 9.93001 59.2746 9.93001Z" fill="#28574E" stroke="#F9F9F9" stroke-width="0.8" mask="url(#path-1-inside-1_1_300)"/>
<path d="M32.1574 22.8326C35.0208 22.8326 37.3513 25.1631 37.3513 28.0265C37.3513 30.8911 35.0208 33.2215 32.1574 33.2215C29.294 33.2215 26.9635 30.8911 26.9635 28.0265C26.9635 25.1631 29.294 22.8326 32.1574 22.8326ZM32.1574 24.7173C30.3322 24.7173 28.8482 26.2013 28.8482 28.0265C28.8482 29.8516 30.3321 31.3368 32.1574 31.3368C33.9827 31.3368 35.4665 29.8516 35.4665 28.0265C35.4665 26.2013 33.9826 24.7173 32.1574 24.7173Z" fill="#1E232F" stroke="#F9F9F9" stroke-width="0.4"/>
<path d="M45.6917 37.9206C43.6562 37.9206 41.9986 36.2631 41.9986 34.2263C41.9986 32.1908 43.6562 30.5333 45.6917 30.5333C47.7273 30.5333 49.3848 32.1908 49.3848 34.2263C49.3848 36.2631 47.7272 37.9206 45.6917 37.9206ZM45.6929 36.0358C46.6903 36.0358 47.5012 35.2247 47.5012 34.2263C47.5012 33.229 46.6902 32.418 45.6929 32.418C44.6956 32.418 43.8846 33.229 43.8846 34.2263C43.8846 35.2247 44.6955 36.0358 45.6929 36.0358Z" fill="#1E232F" stroke="#F9F9F9" stroke-width="0.4"/>
<path d="M39.7149 41.8249V41.825C39.7149 43.8605 38.0574 45.5181 36.0218 45.5181C33.9863 45.5181 32.3287 43.8605 32.3287 41.825C32.3287 39.7894 33.9863 38.1319 36.0218 38.1319C38.0586 38.1319 39.716 39.7895 39.7149 41.8249ZM34.2135 41.8261C34.2135 42.8234 35.0245 43.6345 36.0218 43.6345L37.6302 41.8261H37.8302C37.8302 41.826 37.8302 41.826 37.8302 41.8259C37.83 40.8287 37.019 40.0178 36.0218 40.0178C35.0245 40.0178 34.2135 40.8288 34.2135 41.8261Z" fill="#1E232F" stroke="#F9F9F9" stroke-width="0.4"/>
</svg>
