<svg width="56" height="64" viewBox="0 0 56 64" fill="none" xmlns="http://www.w3.org/2000/svg">
<path d="M51.9232 20.4478L47.3829 21.4214L48.4964 24.3824L43.4707 25.2874" stroke="#1E232F" stroke-width="1.5" stroke-miterlimit="10" stroke-linecap="round" stroke-linejoin="round"/>
<path d="M54.5949 30.8086L49.99 30.1899L50.0184 33.3486L44.9805 32.5015" stroke="#1E232F" stroke-width="1.5" stroke-miterlimit="10" stroke-linecap="round" stroke-linejoin="round"/>
<path d="M51.9133 43.5526L48.7183 40.1961L46.7846 42.7116L43.3945 38.9048" stroke="#1E232F" stroke-width="1.5" stroke-miterlimit="10" stroke-linecap="round" stroke-linejoin="round"/>
<path d="M4.07617 20.4476L8.61643 21.4213L7.50294 24.3822L12.5287 25.2873" stroke="#1E232F" stroke-width="1.5" stroke-miterlimit="10" stroke-linecap="round" stroke-linejoin="round"/>
<path d="M1.40625 30.8085L6.0112 30.1898L5.98278 33.3484L11.0207 32.5014" stroke="#1E232F" stroke-width="1.5" stroke-miterlimit="10" stroke-linecap="round" stroke-linejoin="round"/>
<path d="M4.08789 43.5525L7.28296 40.1959L9.21661 42.7115L12.6067 38.9047" stroke="#1E232F" stroke-width="1.5" stroke-miterlimit="10" stroke-linecap="round" stroke-linejoin="round"/>
<path d="M32.2989 63.2188V47.1214C32.2989 46.0246 33.017 45.0804 34.0665 44.58C36.302 43.5141 37.7249 41.1922 37.2342 38.6061C36.8078 36.3593 34.8844 34.5556 32.4729 34.1355C31.2023 33.9141 29.9894 34.0685 28.9332 34.4963C28.3306 34.7404 27.6702 34.7404 27.0676 34.4963C26.0116 34.0686 24.7988 33.9142 23.5285 34.1354C21.1169 34.5554 19.1933 36.359 18.7668 38.6058C18.2759 41.192 19.6989 43.514 21.9344 44.58C22.984 45.0804 23.702 46.0246 23.702 47.1214V63.2188" stroke="#28574E" stroke-width="1.5" stroke-miterlimit="10" stroke-linecap="round" stroke-linejoin="round"/>
<path d="M32.2989 0.78125V16.8786C32.2989 17.9754 33.017 18.9196 34.0665 19.4201C36.302 20.4859 37.7249 22.8079 37.2342 25.394C36.8078 27.6407 34.8844 29.4444 32.4729 29.8645C31.2023 30.0859 29.9894 29.9315 28.9332 29.5037C28.3306 29.2597 27.6702 29.2597 27.0676 29.5037C26.0116 29.9314 24.7988 30.0859 23.5285 29.8646C21.1169 29.4447 19.1933 27.641 18.7668 25.3942C18.2759 22.808 19.6989 20.486 21.9344 19.4201C22.984 18.9196 23.702 17.9754 23.702 16.8786V0.78125" stroke="#28574E" stroke-width="1.5" stroke-miterlimit="10" stroke-linecap="round" stroke-linejoin="round"/>
</svg>
