<svg width="69" height="69" viewBox="0 0 69 69" fill="none" xmlns="http://www.w3.org/2000/svg">
<g clip-path="url(#clip0_1_305)">
<path d="M-6.10352e-05 0.0001297H68.9999V69.0001H-6.10352e-05V0.0001297Z" fill="#F9F9F9"/>
<path d="M40.3905 64.4867C42.4712 63.3223 44.428 61.8561 46.1962 60.088C55.3939 50.8902 56.4127 36.6118 49.2526 26.2888L54.9505 20.5909C55.824 19.7176 57.2402 19.7176 58.1135 20.5909L60.9355 23.4129C61.8088 24.2875 63.2251 24.2875 64.0984 23.4129L67.3328 20.1785C68.2061 19.3052 68.2061 17.8888 67.3328 17.0155L64.5108 14.1935C63.6375 13.3203 63.6375 11.9039 64.5108 11.0306L67.3342 8.20725C68.2074 7.33397 68.2074 5.91758 67.3342 5.0443L64.0998 1.80993C63.2265 0.936644 61.8101 0.936644 60.9368 1.80993L58.1135 4.63326C57.2402 5.50654 55.824 5.50654 54.9505 4.63326L52.1272 1.80993C51.2526 0.936644 49.8375 0.936644 48.9643 1.80993L45.7285 5.0443C44.8552 5.91758 44.8552 7.33397 45.7285 8.20725L48.5532 11.0306C49.4265 11.9039 49.4265 13.3203 48.5532 14.1935L42.9092 19.8375C32.5781 12.4079 18.1016 13.3189 8.79196 22.5773C-1.50278 32.8154 -1.59577 49.5965 8.59251 59.9411C16.1663 67.6322 27.2616 69.7102 36.7397 66.1753M40.299 54.191C33.212 61.2778 21.7225 61.2778 14.6355 54.191C7.54862 47.1041 7.54862 35.6144 14.6355 28.5275C21.7225 21.4406 33.212 21.4406 40.299 28.5275C47.3859 35.6144 47.3857 47.1041 40.299 54.191Z" stroke="#28574E" stroke-width="1.5" stroke-miterlimit="10" stroke-linecap="round" stroke-linejoin="round"/>
<path d="M24.139 35.1784C24.7275 35.4137 25.2776 35.7698 25.7544 36.2465L27.452 37.9442L29.1488 36.2465C31.0355 34.3597 34.095 34.3597 35.9818 36.2465C37.8686 38.1333 37.8686 41.1928 35.9818 43.0796L27.452 51.6094L18.9222 43.0796C17.9788 42.1362 17.5072 40.9001 17.5072 39.663C17.5072 38.426 17.9788 37.1899 18.9222 36.2465C19.565 35.6038 20.3433 35.1804 21.1651 34.9752" stroke="#EB5757" stroke-width="1.5" stroke-miterlimit="10" stroke-linecap="round" stroke-linejoin="round"/>
</g>
<defs>
<clipPath id="clip0_1_305">
<rect width="69" height="69" fill="white"/>
</clipPath>
</defs>
</svg>
